<?xml version="1.0" encoding="UTF-8"?>
<svg width="24px" height="34px" viewBox="0 0 24 34" version="1.1" xmlns="http://www.w3.org/2000/svg" xmlns:xlink="http://www.w3.org/1999/xlink">
    <!-- Generator: Sketch 53.2 (72643) - https://sketchapp.com -->
    <title>Cherry</title>
    <desc>Created with Sketch.</desc>
    <defs>
        <radialGradient cx="58.4556021%" cy="8.99390244%" fx="58.4556021%" fy="8.99390244%" r="117.52948%" gradientTransform="translate(0.584556,0.089939),scale(0.958333,1.000000),rotate(44.139100),scale(1.000000,0.875769),translate(-0.584556,-0.089939)" id="radialGradient-1">
            <stop stop-color="#E2C41B" offset="0%"></stop>
            <stop stop-color="#F9E66F" offset="18.5215864%"></stop>
            <stop stop-color="#E2C41B" offset="36.2500763%"></stop>
            <stop stop-color="#EBCF2A" offset="60.612859%"></stop>
            <stop stop-color="#FFE963" offset="79.4552365%"></stop>
            <stop stop-color="#675800" offset="100%"></stop>
        </radialGradient>
    </defs>
    <g id="Page-1" stroke="none" stroke-width="1" fill="none" fill-rule="evenodd">
        <g id="Desktop-HD" transform="translate(-708.000000, -84.000000)">
            <g id="header">
                <g id="logo" transform="translate(664.000000, 84.000000)">
                    <g id="Cherry" transform="translate(44.000000, 0.000000)">
                        <ellipse id="Background" fill="url(#radialGradient-1)" cx="12" cy="22.5" rx="12" ry="11.5"></ellipse>
                        <path d="M5.17455958,13.0000003 C3.55864035,15.1426842 2.61687645,17.7160127 2.61687645,20.4836212 C2.61687645,27.0665627 7.94498103,32.5503502 14.9999999,33.7542393 C14.1737087,33.915316 13.3172907,34 12.4396446,34 C5.56941858,34 0,28.8107494 0,22.4094843 C0,18.5349948 2.04036191,15.104528 5.17455958,13.0000003 Z" fill-opacity="0.35" fill="#250005"></path>
                        <g id="SA" transform="translate(15.000000, 15.000000)" fill="#FFFFFF">
                            <path d="M8.23161857,2.86454652 C8.67927788,4.0319767 8.94451788,5.29056914 8.99220571,6.60499382 C8.87149745,6.76434773 8.75036218,6.89492093 8.63740008,6.98232323 C8.05640246,7.43185922 7.44356626,7.43185922 7.03068086,8.03269816 C6.61779545,8.6335371 6.5830214,9.53512462 6.05418486,10.0340414 C5.52534832,10.5329583 4.18135383,10.9499143 3.88419375,12.2772941 C3.58703368,13.604674 4.24017617,13.4795759 4.24017617,13.8009487 C4.24017617,14.1223215 3.13463231,13.9519292 2.74365004,13.4522177 C2.35266777,12.9525063 2.40528046,12.1133724 2.40528046,10.1981902 C2.40528046,8.28300797 3.34417984,7.41186172 2.74365004,6.45114882 C2.14312025,5.49043593 1.49742935,5.74494595 1.2912689,5.41721606 C1.08510845,5.08948616 0.937770349,4.35989834 0.705190657,4.16555349 C0.472610966,3.97120863 1.37346349e-17,3.66084717 0,3.12832866 C0,2.59581015 0.693110062,2.32892654 0.868109344,1.96475698 C1.04310863,1.60058742 0.806690241,0.653269796 1.2912689,0.32678861 C1.77584756,0.000307424212 2.45315123,-0.101405769 2.98232648,0.112691421 C3.51150173,0.32678861 3.92720971,0.0667161494 4.24017617,0.32678861 C4.55314262,0.586861071 4.7279161,1.0981515 5.16880139,1.0981515 C5.60968668,1.0981515 5.87500817,0.864983082 6.20682939,1.0981515 C6.53865061,1.33131991 6.45826385,1.64633566 6.66961782,1.96475698 C6.77280392,2.12021492 7.49805937,2.46356151 8.23161857,2.86454652 Z" fill-opacity="0.4"></path>
                            <path d="M2.37012421,10.2335437 C2.37012421,8.3183615 3.30902359,7.44721525 2.70849379,6.48650236 C2.107964,5.52578947 2.25703325,6.16133943 2.0508728,5.83360953 C1.98444636,5.7280125 2.92936707,5.7280125 3.22695923,6.48650236 C3.51097181,7.21038117 2.68741158,9.46193791 2.70849379,10.2335437 C2.729576,11.0051496 2.68741158,12.1977983 2.729576,12.8587437 C2.76029674,13.3403044 3.01950395,13.3470427 3.22695923,13.4875713 C3.66528912,13.7844925 3.84605406,13.93591 3.74493927,13.9646465 C3.66528912,13.9872827 3.09947606,13.9872827 2.70849379,13.4875713 C2.31751152,12.9878598 2.37012421,12.148726 2.37012421,10.2335437 Z" id="Chile"></path>
                        </g>
                        <g id="Stick" transform="translate(12.000000, 0.000000)">
                            <path d="M0.216096808,12.1722883 C0.873497162,12.0454224 3.89386054,13.0806024 4.15931327,13.3809522 C4.42476601,13.681302 2.90571328,14.2235093 1.70323477,13.8549289 C0.500756251,13.4863485 -0.441303546,12.2991541 0.216096808,12.1722883 Z" id="shadow" fill="#867A25"></path>
                            <path d="M2.27708697,13.0590979 C2.73175447,8.80134842 4.90719913,2.12094705 11.3136268,0.325936238 C11.5010151,0.710964002 11.662397,1.06073 11.314678,1.19294585 C10.1810777,1.6239833 7.97268885,2.22418233 6.2403783,4.31414668 C3.85537504,7.19155902 2.81866504,10.159828 2.82242207,13.2586307 C2.82278679,13.5594528 2.27766952,13.5395797 2.27708697,13.0590979 Z" id="base" fill="#D5BD21" transform="translate(6.898168, 6.891808) rotate(4.000000) translate(-6.898168, -6.891808) "></path>
                        </g>
                    </g>
                </g>
            </g>
        </g>
    </g>
</svg>