<?xml version="1.0" encoding="UTF-8"?>
<svg width="637px" height="207px" viewBox="0 0 637 207" version="1.1" xmlns="http://www.w3.org/2000/svg" xmlns:xlink="http://www.w3.org/1999/xlink">
    <!-- Generator: Sketch 53.2 (72643) - https://sketchapp.com -->
    <title>Artboard</title>
    <desc>Created with Sketch.</desc>
    <g id="Artboard" stroke="none" stroke-width="1" fill="none" fill-rule="evenodd">
        <g id="Red-circle" transform="translate(102.500000, 86.500000) scale(1, -1) translate(-102.500000, -86.500000) translate(11.000000, 11.000000)" fill="#BC3542" fill-rule="nonzero">
            <path d="M183,81.5132743 C178.010912,78.9275664 166.810511,74.1570354 152.203905,74.1570354 C148.497153,74.1570354 145.110985,74.4376549 141.925182,74.8786283 C141.744854,74.8986726 141.584562,74.9387611 141.404234,74.9588053 C141.584562,74.9387611 141.764891,74.9187168 141.925182,74.8986726 C139.82135,83.9185841 135.253029,92.1768142 128.540803,98.8916372 C119.06354,108.392611 106.440547,113.624159 93.0160949,113.624159 C79.5916423,113.624159 66.9686496,108.392611 57.4713504,98.8916372 C48.7755109,90.1924336 43.6862409,78.8874779 42.884781,66.7206195 C32.7262774,59.0637168 25.4329927,49.2433717 21.4256934,38.0773894 C20.6643066,35.9941239 20.0231387,33.8280088 19.5021898,31.5830531 C19.3619343,30.9830619 19.2216788,30.4004425 19.1014599,29.799115 C19.0012774,29.2779646 18.8810584,28.7367699 18.8009124,28.1969115 C18.3601095,25.7902655 18.0795985,23.3047788 17.9193066,20.7190708 C17.8591971,19.4963717 17.8191241,18.2349204 17.8191241,16.9707965 L17.8191241,16.8104425 C17.8191241,16.0487611 17.8391606,15.2870796 17.8591971,14.5454425 C17.8792336,13.9240708 17.8992701,13.2826549 17.9393431,12.6626195 C18.179781,8.33172566 18.8209489,4.28278761 19.8027372,0.554557522 C19.7426277,0.636070796 19.6825182,0.714911504 19.6224088,0.775044248 C7.3400365,16.5498673 0.00667883212,36.3736283 0.00667883212,57.8811062 C0.00667883212,109.194381 41.7226642,150.926504 93.0160949,150.926504 C136.114599,150.926504 172.460803,121.46146 182.979964,81.5934513 C182.979964,81.5734071 182.979964,81.5333186 183,81.5132743" id="path26"></path>
        </g>
        <g id="Yellow" transform="translate(102.500000, 73.000000) scale(1, -1) translate(-102.500000, -73.000000) translate(63.000000, 57.000000)" fill="#F2BE3F" fill-rule="nonzero">
            <path d="M79,4 C77.4133051,4.38 75.7864407,4.84 74.1194068,5.34 C74.0792373,5.36 74.0189831,5.36 73.9788136,5.38 C65.1616102,7.56 55.0991525,9.94 40.5577966,9.94 C28.1855932,9.94 13.825,6.74 0.970762712,0.08 C0.990847458,0.26 1.05110169,0.44 1.09127119,0.62 C2.87881356,7.58 6.51415254,13.98 11.7562712,19.2 C19.6897458,27.12 30.1338136,31.06 40.5577966,31.06 C50.9817797,31.06 61.4057627,27.12 69.359322,19.2 C73.6976271,14.88 76.9513559,9.74 78.9397458,4.16 C78.9598305,4.1 78.9799153,4.06 79,4" id="path94"></path>
        </g>
        <g id="Green" transform="translate(117.500000, 142.500000) scale(1, -1) translate(-117.500000, -142.500000) translate(38.000000, 88.000000)" fill="#7BB24B" fill-rule="nonzero">
            <path d="M159,91.7195122 C158.298529,52.5792073 133.045588,19.3023049 97.9520168,6.48018293 C97.7716387,6.42036585 97.5912605,6.36054878 97.4309244,6.30073171 C87.8307983,3.03073171 76.9279412,1.05676829 64.5820588,0.877317073 L64.4618067,0.877317073 C64.1812185,0.877317073 63.8805882,0.877317073 63.579958,0.897256098 C62.9987395,0.897256098 62.437563,0.917195122 61.8563445,0.957073171 C61.5557143,0.957073171 61.255084,0.977012195 60.9344118,0.99695122 C60.4133193,1.01689024 59.8721849,1.05676829 59.3310504,1.09664634 C58.7498319,1.13652439 58.1686134,1.17640244 57.587395,1.23621951 C56.6855042,1.31597561 55.7836134,1.41567073 54.9017647,1.51536585 C53.9798319,1.635 53.0578992,1.75463415 52.1560084,1.89420732 C50.3321849,2.15341463 48.5083613,2.47243902 46.7045798,2.87121951 C45.8227311,3.05067073 44.9408824,3.25006098 44.0590336,3.44945122 C44.0189496,3.46939024 43.9788655,3.46939024 43.9387815,3.48932927 C43.0569328,3.68871951 42.175084,3.9279878 41.3132773,4.1672561 C40.4915546,4.38658537 39.6698319,4.62585366 38.8681513,4.86512195 C36.5031933,5.58292683 34.1783193,6.40042683 31.8935294,7.29768293 C31.1920588,7.57682927 30.4905882,7.85597561 29.8091597,8.13512195 C27.5243697,9.11213415 25.2997059,10.1489634 23.1151261,11.2854878 C22.1531092,11.9833537 21.2111345,12.6612805 20.3292857,13.3591463 C26.8629832,31.7429268 38.3069748,43.8259756 50.9735294,51.1037195 C53.1180252,52.359878 55.302605,53.4565244 57.5072269,54.4149268 L57.5272689,54.4149268 C61.8763866,56.3476829 66.2856303,57.7434146 70.6347479,58.7004878 C72.3784034,58.879939 74.0819748,59.1989634 75.7855462,59.6190122 C78.8319328,60.0364024 81.7981513,60.2357927 84.6641597,60.2357927 L85.0048739,60.2357927 C86.6282773,60.2357927 88.1915546,60.2357927 89.7147479,60.2756707 C92.8813866,60.3753659 95.8676471,60.5548171 98.6735294,60.8738415 C111.781008,62.2695732 121.361092,66.177622 130.359958,73.4952439 C132.203824,74.9906707 132.46437,77.702378 130.961218,79.5367683 C129.438025,81.3711585 126.732353,81.6503049 124.888487,80.134939 C120.118487,76.2667683 115.047857,73.1961585 107.912899,71.2421341 C105.748361,70.6452927 103.383403,70.1654268 100.797983,69.7666463 C98.5532773,69.447622 96.1081513,69.2083537 93.462605,69.0488415 C91.1176891,68.9092683 88.592395,68.8295122 85.8867227,68.8295122 L85.044958,68.8295122 C74.6431513,68.8707195 62.7782773,66.5564634 51.4545378,61.0931707 C49.6307143,60.2158537 47.8269328,59.2587805 46.0431933,58.2219512 C44.4598739,57.2848171 42.8965966,56.3078049 41.3734034,55.2111585 C29.9895378,47.395061 19.8883613,35.7905488 13.3947479,19.4804268 C12.332521,20.5571341 11.3504622,21.6139024 10.4886555,22.6906098 C3.57415966,31.862561 0.788319328,42.3305488 0.427563025,50.724878 C0.407521008,51.3429878 0.387478992,51.9610976 0.387478992,52.5592683 C0.387478992,53.1986463 0.407521008,53.8353659 0.407521008,54.4734146 C0.447605042,55.4703659 0.507731092,56.447378 0.58789916,57.4243902 C0.668067227,58.1421951 0.728193277,58.86 0.828403361,59.5578659 C0.888529412,60.1174878 0.968697479,60.6757805 1.06890756,61.2327439 C1.3494958,63.0272561 1.73029412,64.7619512 2.1912605,66.4567683 C2.51193277,67.6331707 2.87268908,68.7896341 3.27352941,69.9261585 C3.47394958,70.4844512 3.67436975,71.0228049 3.87478992,71.5611585 C6.74079832,78.7392073 11.150042,84.8405488 16.5413445,89.8452439 C17.9042017,91.1412805 19.3472269,92.357561 20.8303361,93.5140244 C22.2934034,94.6306098 23.8165966,95.7073171 25.3798739,96.7042683 C37.9462185,104.779573 53.1981933,108.607866 65.985,108.607866 C79.132563,108.607866 88.0713025,106.574085 96.5290336,104.480488 C96.6092017,104.460549 96.6893697,104.44061 96.7494958,104.420671 C100.096513,103.40378 103.343319,102.60622 106.489916,101.98811 C108.153403,101.649146 109.776807,101.37 111.380168,101.150671 C111.720882,101.090854 112.061597,101.050976 112.402311,101.011098 C112.582689,100.991159 112.763067,100.95128 112.963487,100.931341 C114.025714,100.771829 115.107983,100.632256 116.210294,100.512622 C118.996134,100.213537 121.982395,100.034085 125.189118,100.034085 C139.799748,100.034085 151.34395,104.121585 157.977857,107.212134 C157.997899,107.152317 157.997899,107.072561 158.017941,107.012744 C158.037983,106.952927 158.037983,106.873171 158.037983,106.813354 C158.078067,106.67378 158.078067,106.554146 158.098109,106.414573 C158.118151,106.354756 158.118151,106.275 158.118151,106.215183 C158.198319,105.776524 158.258445,105.337866 158.298529,104.899207 C158.779538,100.5525 158.959916,96.1060976 159,91.7195122" id="path110"></path>
        </g>
        <g id="Contour" transform="translate(103.500000, 103.500000) scale(1, -1) translate(-103.500000, -103.500000) " fill="#FFFFFF" fill-rule="nonzero">
            <path d="M196.316129,101.496774 C195.615,62.1734516 170.374355,28.7409484 135.297871,15.858871 C135.117581,15.7987742 134.93729,15.7386774 134.777032,15.6785806 C125.181581,12.3932903 114.284032,10.4100968 101.944161,10.2298065 L101.823968,10.2298065 C101.543516,10.2298065 101.243032,10.2298065 100.942548,10.2498387 C100.361613,10.2498387 99.8007097,10.269871 99.2197742,10.3099355 C98.9192903,10.3099355 98.6188065,10.3299677 98.2982903,10.35 C97.7774516,10.3700323 97.2365806,10.4100968 96.6957097,10.4501613 C96.1147742,10.4902258 95.5338387,10.5302903 94.9529032,10.5903871 C94.0514516,10.6705161 93.1700323,10.7506452 92.2685806,10.8708387 C91.3470968,10.971 90.4256129,11.0911935 89.5241613,11.2514516 C87.7012258,11.511871 85.8782903,11.8323871 84.0753871,12.2330323 C83.1939677,12.4133226 82.3125484,12.6136452 81.431129,12.8139677 C81.3910645,12.834 81.351,12.834 81.3109355,12.8540323 C80.4295161,13.0543548 79.5480968,13.2947419 78.6867097,13.535129 C77.8653871,13.7554839 77.0440645,13.995871 76.2427742,14.2362581 C73.8789677,14.9574194 71.5552258,15.7787419 69.2715484,16.6801935 C68.5704194,16.9205806 67.8893226,17.2224 67.1881935,17.5215484 C64.9846452,18.423 62.8211613,19.4459806 60.6977419,20.5464194 C60.6376452,20.5864839 60.5575161,20.6465806 60.4974194,20.6866452 C59.7161613,21.0872903 58.9549355,21.4879355 58.2137419,21.9286452 C57.9933871,22.0488387 57.7730323,22.1703677 57.5526774,22.2892258 C57.5526774,22.3292903 57.5526774,22.3493226 57.5927419,22.3893871 C57.6127742,22.5095806 57.6528387,22.6498065 57.7129355,22.77 C64.2434516,41.2397419 75.681871,53.3792903 88.3422581,60.6910645 C90.4857097,61.9530968 92.6692258,63.054871 94.8727742,64.0177548 L94.8928065,64.0177548 C99.2398065,65.9595484 103.646903,67.3618065 107.993903,68.3233548 C109.716677,68.7039677 111.439452,69.0044516 113.142194,69.2461742 C116.187097,69.6655161 119.151871,69.8658387 122.016484,69.8658387 L122.357032,69.8658387 C123.979645,69.8658387 125.542161,69.8658387 127.064613,69.9059032 C130.22971,70.0060645 133.214516,70.1863548 136.019032,70.506871 C149.120129,71.909129 158.695548,75.8354516 167.690032,83.1872903 C169.533,84.6897097 169.793419,87.4140968 168.291,89.2570645 C166.768548,91.1000323 164.064194,91.3804839 162.221226,89.8580323 C157.453548,85.9717742 152.385387,82.8868065 145.253903,80.9236452 C143.090419,80.3240129 140.726613,79.8419032 138.142452,79.4412581 C135.898839,79.1207419 133.454903,78.8803548 130.810645,78.7200968 C128.466871,78.579871 125.942806,78.4997419 123.238452,78.4997419 L122.397097,78.4997419 C112.000355,78.5411419 100.141258,76.2160645 88.8230323,70.7272258 C87.0000968,69.8458065 85.1971935,68.8842581 83.4143226,67.8425806 C81.8317742,66.9010645 80.2692581,65.9194839 78.7468065,64.8177097 C67.3684839,56.9650645 57.2722258,45.3062903 50.7817742,28.9199032 C50.7417097,28.8397742 50.7216774,28.7596452 50.7016452,28.6808516 C49.68,29.8213548 48.7384839,30.964529 47.8770968,32.1450968 C40.9659677,41.3599355 38.1814839,51.876871 37.8209032,60.3104516 C37.800871,60.9314516 37.7808387,61.5524516 37.7808387,62.1534194 C37.7808387,62.7957871 37.800871,63.4354839 37.800871,64.0765161 C37.8409355,65.078129 37.9010323,66.0597097 37.9811613,67.0412903 C38.0612903,67.7624516 38.1213871,68.4836129 38.2215484,69.1847419 C38.2816452,69.7469806 38.3617742,70.3078839 38.4619355,70.8674516 C38.7423871,72.6703548 39.123,74.4131613 39.5837419,76.1159032 C39.9042581,77.2978065 40.2648387,78.4596774 40.6654839,79.6015161 C40.8658065,80.1624194 41.066129,80.7032903 41.2664516,81.2441613 C44.1310645,88.4557742 48.5381613,94.5856452 53.9268387,99.6137419 C55.2890323,100.915839 56.7313548,102.137806 58.2137419,103.299677 C59.6760968,104.421484 61.1985484,105.503226 62.7610645,106.504839 C75.3212903,114.617903 90.5658387,118.464097 103.346419,118.464097 C116.487581,118.464097 125.421968,116.420806 133.875581,114.317419 C133.95571,114.297387 134.035839,114.277355 134.095935,114.257323 C134.556677,114.137129 134.997387,114.036968 135.438097,113.916774 C138.242613,113.215645 141.007065,112.534548 143.831613,111.933581 C145.414161,111.593032 147.036774,111.272516 148.699452,111.012097 C149.04,110.952 149.380548,110.891903 149.741129,110.831806 C149.921419,110.811774 150.10171,110.77171 150.302032,110.751677 C151.403806,110.611452 152.485548,110.491258 153.547258,110.391097 C153.56729,110.371065 153.56729,110.351032 153.547258,110.331 C156.331742,110.030516 159.316548,109.850226 162.52171,109.850226 C177.125226,109.850226 188.663806,113.956839 195.294484,117.061839 C195.294484,117.101903 195.294484,117.121935 195.274452,117.162 L195.294484,117.162 C195.294484,117.121935 195.314516,117.101903 195.314516,117.061839 C195.314516,117.001742 195.334548,116.921613 195.334548,116.861516 C195.354581,116.801419 195.354581,116.72129 195.354581,116.661194 C195.394645,116.520968 195.394645,116.400774 195.414677,116.260548 C195.43471,116.200452 195.43471,116.120323 195.43471,116.060226 C195.514839,115.619516 195.574935,115.178806 195.615,114.738097 C195.655065,114.557806 195.675097,114.377516 195.695129,114.197226 C195.735194,113.836645 195.775258,113.476065 195.815323,113.115484 C195.955548,111.833419 196.05571,110.531323 196.135839,109.229226 C196.175903,108.628258 196.215968,108.02729 196.236,107.426323 C196.276065,106.845387 196.296097,106.264452 196.296097,105.663484 C196.316129,104.842161 196.336161,104.020839 196.336161,103.199516 C196.336161,102.638613 196.336161,102.057677 196.316129,101.496774 M141.688161,122.150032 C140.105613,122.530645 138.483,122.991387 136.820323,123.492194 C136.780258,123.512226 136.720161,123.512226 136.680097,123.532258 C127.885935,125.715774 117.849774,128.099613 103.346419,128.099613 C91.0065484,128.099613 76.6834839,124.894452 63.8628387,118.22371 C63.882871,118.404 63.9429677,118.58429 63.9830323,118.764581 C65.7659032,125.735806 69.3917419,132.146129 74.6201613,137.374548 C82.5329032,145.307323 92.9496774,149.253677 103.346419,149.253677 C113.743161,149.253677 124.139903,145.307323 132.072677,137.374548 C136.399645,133.047581 139.644871,127.89929 141.628065,122.31029 C141.648097,122.250194 141.668129,122.210129 141.688161,122.150032 M29.8480645,76.9171935 C29.7078387,76.3175613 29.5676129,75.7352903 29.4474194,75.1343226 C29.3472581,74.6134839 29.2270645,74.0726129 29.1469355,73.5330774 C28.7062258,71.127871 28.4257742,68.643871 28.2655161,66.0597097 C28.2054194,64.8377419 28.1653548,63.5757097 28.1653548,62.3136774 L28.1653548,62.1534194 C28.1653548,61.3921935 28.1853871,60.6309677 28.2054194,59.8897742 C28.2254516,59.2687742 28.2454839,58.6277419 28.2855484,58.0080774 C28.5259355,53.6797742 29.1669677,49.6332581 30.1485484,45.9072581 C30.0884516,45.9887226 30.0283548,46.0675161 29.9682581,46.1276129 C17.6884839,61.893 10.3566774,81.7049032 10.3566774,103.199516 C10.3566774,154.482097 52.0638387,196.189258 103.346419,196.189258 C146.435806,196.189258 182.774323,166.741839 193.291258,126.897677 C193.291258,126.877645 193.291258,126.837581 193.31129,126.817548 C188.323258,124.233387 177.125226,119.46571 162.52171,119.46571 C158.815742,119.46571 155.43029,119.746161 152.245161,120.186871 C152.064871,120.206903 151.904613,120.246968 151.724323,120.267 C151.904613,120.246968 152.084903,120.226935 152.245161,120.206903 C150.141774,129.221419 145.574419,137.47471 138.863613,144.185516 C129.388355,153.680806 116.768032,158.909226 103.346419,158.909226 C89.9248065,158.909226 77.3044839,153.680806 67.8091935,144.185516 C59.1151935,135.491516 54.027,124.193323 53.2257097,112.033742 C43.0693548,104.381419 35.7776129,94.5669484 31.7711613,83.4076452 C31.0099355,81.3256258 30.3689032,79.1608065 29.8480645,76.9171935 M205.951645,101.556871 L205.951645,101.697097 C205.891548,106.985613 205.651161,112.414355 204.93,117.742935 C204.93,117.903194 204.889935,118.063452 204.869903,118.22371 C204.769742,118.84471 204.689613,119.46571 204.569419,120.08671 C204.469258,120.807871 204.329032,121.509 204.208839,122.210129 C204.168774,122.370387 204.148742,122.550677 204.108677,122.710935 C204.048581,123.091548 203.968452,123.472161 203.888323,123.852774 C203.888323,123.872806 203.86829,123.892839 203.86829,123.892839 C203.748097,124.473774 203.627903,125.034677 203.50771,125.615613 C193.251194,171.469452 152.225129,205.824774 103.346419,205.824774 C46.7552903,205.824774 0.72116129,159.790645 0.72116129,103.199516 C0.72116129,63.8561613 22.977,29.6210323 55.5494516,12.3932903 C56.7513871,11.7522581 57.9533226,11.1526258 59.1953226,10.5703548 C59.8363548,10.2498387 60.4974194,9.94935484 61.1384516,9.65020645 C60.5975806,9.86922581 60.0767419,10.1296452 59.535871,10.3900645 C73.3180645,3.15841935 88.8630968,0.574258065 99.981,0.574258065 C100.602,0.574258065 101.202968,0.574258065 101.803935,0.594290323 L101.944161,0.594290323 C102.404903,0.574258065 102.885677,0.574258065 103.346419,0.574258065 C113.783226,0.574258065 123.879484,2.13810968 133.394806,5.08151613 L134.957323,5.56229032 C161.239645,13.6152581 178.968194,30.4423548 190.126161,48.4713871 C190.286419,48.7131097 190.426645,48.9521613 190.586903,49.1925484 C191.007581,49.8936774 191.428258,50.5747742 191.848935,51.2959355 C192.269613,51.9984 192.670258,52.7195613 193.070903,53.4393871 C193.471548,54.1605484 193.872194,54.8817097 194.252806,55.6229032 C195.194323,57.3857419 196.075742,59.1686129 196.897065,60.9915484 C197.237613,61.7728065 197.598194,62.5540645 197.91871,63.3353226 C203.547774,76.3562903 205.971677,88.9165161 205.971677,98.1513871 C205.971677,99.2731935 205.971677,100.415032 205.951645,101.556871" id="path106"></path>
        </g>
        <g id="Southern" transform="translate(229.000000, 4.000000)" fill="#F2BE3F" fill-rule="nonzero">
            <path d="M57.9066652,4.96933321 C53.8439987,3.19733325 49.7186654,1.92799995 45.5319989,1.1573333 C41.343999,0.385333324 37.3853324,2.13162821e-14 33.6573325,2.13162821e-14 C29.9279993,2.13162821e-14 26.5733327,0.198666662 23.5946661,0.594666652 C20.6146662,0.990666642 17.6573329,1.67866662 14.7186663,2.65733327 C11.781333,3.63599991 9.25066644,4.89599988 7.12533316,6.43866651 C2.37599994,9.81333309 0,14.5826663 0,20.7506661 C0,24.4159994 0.854666645,27.8439993 2.5626666,31.0319992 C4.27066656,34.2186658 6.49999984,36.8546657 9.25066644,38.9386657 C15.0839996,43.4386656 21.4586661,45.6879989 28.3759993,45.6879989 C36.6666657,45.6879989 42.8333323,43.2506656 46.8759988,38.375999 C48.8759988,35.9159991 49.8759988,32.9386658 49.8759988,29.4386659 C49.8759988,25.938666 48.2186655,22.9066661 44.9066655,20.3439995 C41.5946656,17.7813329 38.103999,16.4999996 34.4373325,16.4999996 C33.5626658,16.4999996 33.1253325,16.9479996 33.1253325,17.8439996 C33.1253325,18.7399995 33.5413325,19.3853328 34.3759991,19.7813328 C35.2093325,20.1773328 36.2093324,20.5519995 37.3759991,20.9066661 C38.5413324,21.2599995 39.7093323,21.6879995 40.875999,22.1879994 C43.7506656,23.4786661 45.1879989,25.5733327 45.1879989,28.4693326 C45.1879989,31.3639992 43.8653322,33.5519992 41.2186656,35.0319991 C38.5733324,36.5106658 33.9786658,37.2506657 27.4373326,37.2506657 C20.8959995,37.2506657 15.8333329,35.5946658 12.2506664,32.2813325 C8.66666645,28.9693326 6.87599983,25.0213327 6.87599983,20.4386662 C6.87599983,14.3959996 9.56266643,10.1039997 14.937333,7.56266648 C19.7293328,5.27066653 25.458666,4.12533323 32.1253325,4.12533323 C43.5839989,4.12533323 52.853332,7.39599982 59.9373318,13.9386663 C64.9373317,18.5213329 67.4373316,24.2919994 67.4373316,31.2506659 C67.4373316,35.4159991 65.958665,39.4586657 62.9999984,43.3759989 C61.7093318,45.1253322 60.2706652,46.8546655 58.6879985,48.5626655 C57.1039986,50.2706654 55.5213319,51.9786654 53.937332,53.6879987 C52.353332,55.3959986 50.9159987,57.1039986 49.6253321,58.8133319 C46.6666655,62.5626651 45.1879989,66.062665 45.1879989,69.3133316 C45.1879989,72.5626649 45.7186655,75.3639981 46.7813322,77.7199981 C47.8439988,80.0733313 49.2599988,82.1146646 51.0319987,83.8439979 C52.8026653,85.5733312 54.833332,87.0626645 57.1253319,88.3133311 C61.7506651,90.8959977 66.646665,92.1879977 71.8133315,92.1879977 C76.3133314,92.1879977 80.499998,91.1039977 84.3759979,88.9386644 C88.6253311,86.6039978 90.7506644,83.0413313 90.7506644,78.2506647 C90.7506644,76.3759981 90.0839977,74.7293315 88.7506644,73.3133315 C87.4159978,71.8959982 85.9159979,71.1879982 84.2506646,71.1879982 C82.5839979,71.1879982 81.2186646,71.6666649 80.155998,72.6253315 C79.0946647,73.5826648 78.5626647,74.6573315 78.5626647,75.8439981 C78.5626647,77.0319981 79.0733314,78.3026647 80.0946647,79.6573313 C81.1146646,81.0106646 81.6253313,82.1359979 81.6253313,83.0319979 C81.6253313,83.9266646 81.2506646,84.7506645 80.499998,85.4999979 C79.7506647,86.2506645 78.791998,86.8133312 77.6253314,87.1879978 C75.2919981,87.8959978 73.1666648,88.2506645 71.2506649,88.2506645 C66.8333317,88.2506645 63.0413318,86.9386645 59.8759985,84.3133312 C56.7093319,81.687998 55.125332,78.0413314 55.125332,73.3759982 C55.125332,70.8333316 56.7093319,67.854665 59.8759985,64.4386651 C61.2919985,62.9386651 62.8439984,61.3439985 64.5319984,59.6573318 C66.218665,57.9693319 67.9159983,56.1666653 69.6253316,54.2506653 C71.3333315,52.333332 72.8959982,50.3546654 74.3133315,48.3133321 C77.4786647,43.8133322 79.0626647,39.1453324 79.0626647,34.3133325 C79.0626647,29.4786659 78.103998,25.1039994 76.1879981,21.1879995 C74.2706648,17.2706662 71.7599982,14.0319996 68.6573316,11.469333 C65.5519984,8.90666644 61.9693318,6.73999983 57.9066652,4.96933321" id="path158" transform="translate(45.375332, 46.093999) scale(1, -1) translate(-45.375332, -46.093999) "></path>
            <path d="M102.643597,56.2498653 C104.559597,56.2498653 106.362264,56.8751986 108.050264,58.1245319 C109.736931,59.3751985 111.018264,61.0005318 111.892931,62.9991984 C113.602264,66.8325317 114.455597,70.7911982 114.455597,74.8751981 C114.455597,78.9578647 113.706264,82.0511979 112.206264,84.1565312 C110.706264,86.2591978 108.580931,87.3125312 105.831597,87.3125312 C103.080931,87.3125312 100.362264,85.5205312 97.6742642,81.9378646 C94.9875976,78.3538647 93.6435977,73.7911982 93.6435977,68.249865 C93.6435977,60.2498652 96.6435976,56.2498653 102.643597,56.2498653 M82.2062646,68.249865 C82.2062646,71.3751982 82.9662646,74.3845315 84.4875979,77.2805314 C86.0075978,80.1765313 87.9769311,82.6245313 90.3942644,84.6245312 C95.7275976,88.9578644 101.164931,91.1245311 106.706264,91.1245311 C112.247597,91.1245311 116.78893,89.6445311 120.331597,86.6871978 C123.87293,83.7285312 125.643597,80.031198 125.643597,75.5938648 C125.643597,71.1565316 124.42493,67.165865 121.987597,63.6245317 C119.550264,60.0831985 116.331597,57.3218652 112.331597,55.3431986 C108.331597,53.364532 103.966264,52.3751987 99.2369309,52.3751987 C94.5075976,52.3751987 90.4875977,53.8631987 87.1755978,56.8431986 C83.8635979,59.8218652 82.2062646,63.6245317 82.2062646,68.249865" id="path162" transform="translate(103.924931, 71.749865) scale(1, -1) translate(-103.924931, -71.749865) "></path>
            <path d="M179.338929,89.7498644 C173.756262,74.8751981 170.964262,65.853865 170.964262,62.6871984 C170.964262,61.3538651 171.297596,60.6871985 171.964262,60.6871985 C173.797596,60.6871985 176.464262,63.3538651 179.964262,68.6871983 L182.650929,66.1245317 C180.442929,62.1658651 177.828262,58.8845319 174.808262,56.2805319 C171.786929,53.676532 169.338929,52.3751987 167.464262,52.3751987 C163.588263,52.3751987 161.650929,54.332532 161.650929,58.2498652 C161.650929,61.2911985 162.360263,65.0005317 163.776263,69.3751983 C165.193596,73.7498648 165.901596,75.9578648 165.901596,75.9991981 C165.693596,75.6245314 165.193596,74.7591981 164.401596,73.4058648 C163.609596,72.0511982 163.026929,71.0405316 162.650929,70.3751982 C162.276263,69.7071983 161.661596,68.6965316 160.808263,67.3431983 C159.953596,65.9885317 159.245596,64.925865 158.682929,64.1565317 C158.120263,63.3845317 157.369596,62.3951984 156.432263,61.1871985 C155.494929,59.9778652 154.661596,59.0205319 153.932263,58.3125319 C153.20293,57.6031986 152.33893,56.8218652 151.33893,55.9685319 C150.33893,55.1138653 149.380263,54.4578653 148.464263,54.000532 C146.380263,52.916532 144.33893,52.3751987 142.33893,52.3751987 C137.380263,52.3751987 134.901597,55.1031986 134.901597,60.5618652 C134.901597,63.0618651 135.797597,66.9471983 137.589597,72.2191982 C139.380263,77.4885314 140.276263,80.5938647 140.276263,81.531198 C140.276263,82.4685313 139.984263,82.9378646 139.401597,82.9378646 C137.73493,82.9378646 135.421597,80.291198 132.464263,74.9991981 L128.401597,77.4378647 C134.109597,86.5618645 139.609597,91.1245311 144.901596,91.1245311 C146.65093,91.1245311 148.04693,90.6351977 149.089596,89.6565311 C150.13093,88.6765311 150.620263,87.1765312 150.557596,85.1565312 C150.49493,83.1351979 149.47493,79.531198 147.49493,74.3431981 C145.516263,69.1565316 144.52693,65.1871984 144.52693,62.4378651 C144.52693,60.9378651 145.213596,60.1871985 146.589596,60.1871985 C148.172263,60.1871985 150.057596,61.1965318 152.245596,63.2191984 C154.432263,65.2391984 156.546929,67.7071983 158.588263,70.6245316 C161.838929,75.2071981 165.213596,80.583198 168.713596,86.7498645 L170.401596,89.7498644 L179.338929,89.7498644 Z" id="path166" transform="translate(155.526263, 71.749865) scale(1, -1) translate(-155.526263, -71.749865) "></path>
            <path d="M193.133195,57.6245319 C197.425195,70.9578649 201.799862,82.1245313 206.258528,91.1245311 L214.007861,90.4991977 C213.550528,89.1658644 212.425195,85.9578645 210.633195,80.8738646 C206.758528,69.6658649 204.258528,61.9151985 203.133195,57.6245319 L212.945195,57.6245319 L211.945195,53.4991987 L201.821195,53.4991987 C197.987862,41.6658656 196.070528,34.4685325 196.070528,31.9058659 C196.070528,29.3431993 196.330528,28.061866 196.851862,28.061866 C197.373195,28.061866 197.841195,28.165866 198.258528,28.3751993 C199.382528,28.9991993 201.799862,32.0405325 205.507862,37.4991991 L208.070528,35.1871991 C205.278528,30.1031992 202.403862,26.3431993 199.445195,23.9058661 C196.487862,21.4685328 194.049195,20.2498662 192.133195,20.2498662 C190.215862,20.2498662 188.769195,20.9165328 187.789195,22.2498661 C186.810529,23.5818661 186.321195,25.2911994 186.321195,27.3751993 C186.321195,32.6658659 188.174529,41.3738656 191.883862,53.4991987 L185.321195,53.4991987 L186.321195,57.6245319 L193.133195,57.6245319 Z" id="path170" transform="translate(199.664528, 55.687199) scale(1, -1) translate(-199.664528, -55.687199) "></path>
            <path d="M238.838927,10.9989331 C238.838927,13.1655997 239.713594,16.6442663 241.464261,21.4362661 C243.213594,26.2269327 244.089594,29.6549326 244.089594,31.7175992 C244.089594,33.7802658 243.369594,34.8109325 241.932261,34.8109325 C240.494927,34.8109325 238.756261,33.8002658 236.713594,31.7802659 C234.672261,29.7589326 232.713594,27.2895993 230.838928,24.3735994 C227.754928,19.6655995 224.650928,14.2895996 221.526928,8.24826646 L219.901595,5.24959987 L210.901595,5.24959987 C212.942928,20.3322662 214.901595,31.4989325 216.776261,38.7482657 C218.650928,45.9989322 220.442928,52.186932 222.150928,57.3109319 C223.860261,62.4362651 225.693594,66.9775983 227.650928,70.9362649 C232.068261,80.0189313 237.150927,86.7495978 242.901594,91.1242644 L247.650927,88.9362644 C243.193594,84.4775979 239.098927,76.6335981 235.369594,65.4055984 C231.641594,54.174932 227.505594,38.6869324 222.964261,18.9362662 C223.213594,19.3522662 223.724261,20.2375995 224.494928,21.5922661 C225.265594,22.9455994 225.860261,23.9682661 226.276261,24.6549327 C226.693594,25.3429327 227.328261,26.3735993 228.182928,27.7495993 C229.036261,29.1242659 229.756261,30.2175992 230.338928,31.0295992 C230.922928,31.8429325 231.682928,32.8522658 232.620261,34.0615991 C233.557594,35.2695991 234.390927,36.2375991 235.120261,36.9682657 C235.849594,37.6962657 236.713594,38.4882657 237.713594,39.3429323 C238.713594,40.1962657 239.672261,40.873599 240.588261,41.373599 C242.713594,42.4562656 244.984261,42.9989323 247.401594,42.9989323 C249.817594,42.9989323 251.641594,42.3322656 252.869594,40.9989323 C254.098927,39.665599 254.713594,37.8735991 254.713594,35.6242658 C254.713594,33.3735992 253.67226,29.5922659 251.589594,24.2802661 C249.505594,18.9682662 248.46426,15.6869329 248.46426,14.4362663 C248.46426,13.186933 248.797594,12.5615997 249.46426,12.5615997 C251.213594,12.5615997 253.86026,15.206933 257.401594,20.4989328 L260.089593,17.9989329 C257.422927,13.414933 254.641594,9.97759975 251.745594,7.68693314 C248.849594,5.39359987 246.474927,4.24959989 244.620261,4.24959989 C242.765594,4.24959989 241.338927,4.83226655 240.338927,5.99893318 C239.338927,7.16559982 238.838927,8.83226645 238.838927,10.9989331" id="path174" transform="translate(235.495594, 47.686932) scale(1, -1) translate(-235.495594, -47.686932) "></path>
            <path d="M273.924926,69.1255983 C278.55026,69.2922649 282.268926,70.0322649 285.080926,71.3442649 C287.894259,72.6562649 289.851593,74.1562648 290.955593,75.8442648 C292.060926,77.5322647 292.612926,79.301598 292.612926,81.1562646 C292.612926,83.0109313 292.132926,84.3855979 291.175593,85.2815979 C290.216926,86.1775978 289.195593,86.6255978 288.112926,86.6255978 C285.44626,86.6255978 282.99826,85.6975979 280.768926,83.8442646 C278.539593,81.989598 276.84226,79.7389313 275.67426,77.0949314 C274.507593,74.4482648 273.924926,71.7922649 273.924926,69.1255983 L273.924926,69.1255983 Z M274.299593,65.688265 C274.55026,60.8962651 277.779593,58.5002652 283.987593,58.5002652 C286.279593,58.5002652 288.664926,59.1562652 291.143593,60.4695985 C293.622259,61.7815985 295.632926,63.3335984 297.174259,65.1255984 L299.862259,63.3762651 C296.403593,57.5829319 290.883593,54.0415986 283.299593,52.750932 C281.632926,52.5002654 280.028926,52.374932 278.487593,52.374932 C273.987593,52.374932 270.236927,53.8642653 267.236927,56.8442652 C264.236927,59.8229318 262.736927,63.4589317 262.736927,67.7509316 C262.736927,72.0415982 264.05026,76.0109314 266.675593,79.6562647 C269.299593,83.3015979 272.580927,86.1255978 276.51826,88.1255978 C280.455593,90.1255977 284.340926,91.1255977 288.175593,91.1255977 C292.008926,91.1255977 295.331593,90.2509311 298.143593,88.5002645 C300.955592,86.7509312 302.394259,84.3962646 302.455592,81.437598 C302.518259,78.4789314 301.654259,75.9269314 299.862259,73.7815982 C298.070259,71.6349315 295.799593,70.0002649 293.050259,68.8762649 C287.591593,66.6669317 282.236926,65.5629317 276.987593,65.5629317 L274.299593,65.688265 Z" id="path178" transform="translate(282.597849, 71.750265) scale(1, -1) translate(-282.597849, -71.750265) "></path>
            <path d="M341.161858,81.9370646 C339.577858,81.9370646 337.701858,80.926398 335.536525,78.906398 C333.369858,76.8837314 331.264525,74.4157315 329.224525,71.4997315 C325.973859,66.8317317 322.661859,61.4570651 319.287192,55.3743986 L317.599192,52.3743987 L308.787192,52.3743987 L310.724526,58.2490652 C314.349859,69.0823983 316.161859,75.5090648 316.161859,77.5303981 C316.161859,79.550398 315.827192,80.562398 315.161859,80.562398 C313.952525,80.562398 312.515192,79.1250647 310.849859,76.2490648 C310.473859,75.5823981 310.161859,75.0503981 309.912526,74.6557315 C309.661859,74.2597315 309.380526,73.7810648 309.068526,73.2183982 C308.755192,72.6557315 308.557859,72.3117315 308.473859,72.1877315 L304.287192,74.6250648 C307.536526,79.9157313 310.515192,83.8223979 313.224526,86.3437312 C315.932525,88.8637311 318.701859,90.1250644 321.536525,90.1250644 C322.827192,90.1250644 323.943192,89.5823978 324.880525,88.4997311 C325.817859,87.4157311 326.287192,86.1343978 326.287192,84.6557312 C326.287192,83.1757313 326.201859,81.8637313 326.036525,80.718398 C325.869859,79.5717313 325.683192,78.5197314 325.473859,77.5623981 C325.264525,76.6037314 324.973859,75.4570648 324.599192,74.1250648 C324.224525,72.7903982 323.920525,71.7703982 323.692525,71.0623982 C323.464525,70.3530649 323.161859,69.3943983 322.787192,68.1863983 C322.411192,66.9783983 322.183192,66.2703983 322.099192,66.0623983 C322.849859,67.5623983 324.120525,69.7703983 325.911192,72.6877315 C327.701858,75.6037314 328.869858,77.4370647 329.411192,78.186398 C329.952525,78.9370647 330.701858,79.9370647 331.661858,81.1877313 C332.620525,82.4370646 333.464525,83.4063979 334.192525,84.0930646 C334.920525,84.7810645 335.796525,85.5717312 336.817858,86.4677312 C337.839192,87.3637311 338.807192,88.0410645 339.724525,88.4997311 C342.057858,89.5823978 344.307191,90.1250644 346.473858,90.1250644 C348.639191,90.1250644 350.380525,89.4890644 351.692525,88.2183978 C353.005858,86.9463978 353.661858,85.4677312 353.661858,83.7810646 C353.661858,82.0930646 353.131191,80.6130647 352.068525,79.3437313 C351.005858,78.0717314 349.776525,77.4370647 348.380525,77.4370647 C346.983191,77.4370647 345.889858,77.6757314 345.099191,78.1557314 C344.307191,78.634398 343.764525,79.1450647 343.473858,79.6877313 C342.599191,81.1877313 341.827191,81.9370646 341.161858,81.9370646" id="path182" transform="translate(328.974525, 71.249732) scale(1, -1) translate(-328.974525, -71.249732) "></path>
            <path d="M371.790791,69.9370649 C380.49879,83.3943979 388.312124,90.1250644 395.228123,90.1250644 C397.561457,90.1250644 399.312123,89.4157311 400.47879,87.9997311 C401.644123,86.5823978 402.228123,84.7903979 402.228123,82.6250646 C402.228123,80.4570646 401.260123,76.7077314 399.321457,71.3743982 C397.384123,66.041065 396.416123,62.7383984 396.416123,61.4677318 C396.416123,60.1970651 396.728123,59.5623985 397.353457,59.5623985 C398.18679,59.5623985 399.416123,60.4263985 401.040123,62.1557318 C402.665457,63.8837317 404.10279,65.7077317 405.353457,67.625065 L407.97879,65.125065 C405.47879,60.5823985 402.737457,57.1557319 399.760123,54.8437319 C396.780123,52.5303987 394.36279,51.3743987 392.509457,51.3743987 C390.65479,51.3743987 389.20679,51.9903987 388.165457,53.2183986 C387.124124,54.4463986 386.60279,56.1250652 386.60279,58.2490652 C386.60279,60.3743985 387.44679,63.8437317 389.13479,68.6557316 C390.821457,73.4677315 391.665457,76.8837314 391.665457,78.906398 C391.665457,80.926398 390.97879,81.9370646 389.60279,81.9370646 C388.01879,81.9370646 386.144124,80.926398 383.97879,78.906398 C381.812124,76.8837314 379.706791,74.4157314 377.665457,71.4997315 C374.416124,66.8317316 371.102791,61.4570651 367.728124,55.3743986 L366.041458,52.3743987 L357.228124,52.3743987 L359.165458,58.2490652 C362.790791,69.0823982 364.602791,75.5090648 364.602791,77.530398 C364.602791,79.550398 364.268124,80.562398 363.602791,80.562398 C362.393458,80.562398 360.956124,79.1250647 359.290791,76.2490647 C358.916124,75.5823981 358.602791,75.0503981 358.353458,74.6557314 C358.102791,74.2597315 357.821458,73.7810648 357.509458,73.2183981 C357.197458,72.6557315 356.998791,72.3117315 356.916124,72.1863982 L352.728125,74.6250648 C355.978791,79.9157313 358.956124,83.8223979 361.665458,86.3437311 C364.374791,88.8637311 367.144124,90.1250644 369.978791,90.1250644 C371.268124,90.1250644 372.384124,89.5823977 373.321457,88.4997311 C374.260124,87.4157311 374.728124,86.1037312 374.728124,84.5623979 C374.728124,83.0197312 374.602791,81.5090646 374.353457,80.030398 C374.102791,78.550398 373.842791,77.322398 373.572124,76.3437314 C373.300124,75.3637314 372.946791,74.1037315 372.509457,72.5623982 C372.072124,71.0197315 371.830791,70.1450649 371.790791,69.9370649" id="path186" transform="translate(380.353457, 70.749732) scale(1, -1) translate(-380.353457, -70.749732) "></path>
        </g>
        <g id="Lands" transform="translate(229.000000, 106.000000)" fill="#F2BE3F" fill-rule="nonzero">
            <path d="M3.93733323,11.8119997 C3.93733323,8.51866645 5.97866652,6.31199984 10.0626664,5.18666654 C18.5213329,2.85333326 26.9373327,3.58133324 35.3119991,7.37466648 C38.4373324,8.83199978 40.8333323,10.6439997 42.4999989,12.8119997 C34.1653325,18.4373329 26.6039993,21.2493328 19.8119995,21.2493328 C9.22799977,21.2493328 3.93733323,18.1039995 3.93733323,11.8119997 M101.625331,74.1866648 C101.625331,83.1439979 97.3959976,87.6239978 88.9373311,87.6239978 C85.2706645,87.6239978 82.1039979,86.4999978 79.4373313,84.2493312 C76.7706647,81.999998 74.7079981,79.103998 73.2493315,75.5626648 C71.7906649,72.0186649 70.3639982,67.7493316 68.9679983,62.7493318 C67.5719983,57.7493319 66.3333317,52.7906653 65.2493317,47.8746655 C62.5413318,35.7493324 58.7079985,25.6439994 53.749332,17.5613329 C55.249332,16.8946662 57.5413319,15.8226663 60.6253318,14.3426663 C63.7079984,12.8626663 66.1879983,11.7066664 68.062665,10.8746664 C73.3119982,8.49999979 77.9159981,7.31199982 81.8746646,7.31199982 C83.6253312,7.31199982 85.2706645,7.74933314 86.8119978,8.62399978 C88.3533311,9.49999976 89.5306644,10.4479997 90.3439977,11.4679997 C91.1559977,12.4879997 91.8639977,13.437333 92.4679977,14.3119996 C93.073331,15.1866663 93.437331,15.6239996 93.5626643,15.6239996 L96.3746643,13.9999997 C92.7079977,7.08133316 88.8333311,2.7906666 84.7493312,1.12399997 C82.9159979,0.374666657 80.5626647,2.13162821e-14 77.6879981,2.13162821e-14 C74.8119981,2.13162821e-14 71.6559982,0.510666654 68.218665,1.53066663 C64.7813317,2.5506666 60.9266651,4.01866657 56.6559986,5.93733318 C52.3839987,7.85333314 49.3746654,9.12399977 47.6253321,9.74933309 C44.2906656,6.87466649 40.0306657,4.53066655 34.8439991,2.7186666 C29.6559993,0.905333311 23.7079994,2.36847578e-14 16.9999996,2.36847578e-14 C13.625333,2.36847578e-14 10.5626664,0.623999984 7.8119998,1.87466662 C2.60399993,4.29066656 0,7.35333315 0,11.0626664 C0,14.769333 1.14666664,17.8946662 3.43733325,20.4373328 C7.8119998,25.2693327 13.8746663,27.686666 21.6253328,27.686666 C27.1653327,27.686666 33.0199992,26.5413327 39.1866657,24.2493327 C41.4373323,23.3746661 44.3746656,22.1666661 47.9999988,20.6239995 C49.7906654,25.5813327 51.3119987,31.2906659 52.5626654,37.7493324 C53.8119987,44.2066656 54.9786653,49.5506654 56.0626653,53.781332 C57.1453319,58.0093319 58.2599985,61.9053318 59.4066652,65.4679984 C60.5519985,69.0306649 62.0519984,72.4999982 63.9066651,75.8746648 C65.7599984,79.2493314 67.8119983,82.1239979 70.0626649,84.4999979 C75.0213315,89.6666644 81.4786646,92.249331 89.4373311,92.249331 C95.4786643,92.249331 100.406664,90.4999977 104.218664,86.9999978 C108.030664,83.4999979 109.937331,78.5813314 109.937331,72.2493315 C109.937331,67.5413316 108.989331,62.9679984 107.093331,58.5306652 C105.197331,54.093332 102.687997,50.1866654 99.5626642,46.8119988 C96.4373309,43.4373322 92.8226643,40.5813323 88.7186644,38.2493324 C84.6146646,35.9159991 80.3746647,34.3746658 75.9999981,33.6239992 L75.1253315,37.0613324 C80.207998,38.311999 84.7906645,40.8626656 88.8746644,44.7186655 C92.9586643,48.5719988 96.1039976,53.093332 98.3119975,58.2813319 C100.521331,63.4679984 101.625331,68.7693316 101.625331,74.1866648" id="path190" transform="translate(54.968665, 46.124666) scale(1, -1) translate(-54.968665, -46.124666) "></path>
            <path d="M122.853997,85.7498645 C120.436664,85.7498645 118.17533,84.7378645 116.072664,82.7191979 C113.96733,80.6978646 112.353997,78.2605314 111.228664,75.4058648 C110.103331,72.5511982 109.541997,69.7698649 109.541997,67.061865 C109.541997,64.3538651 110.135331,62.1671984 111.323331,60.5005318 C112.509997,58.8325319 114.341997,58.0005319 116.82333,58.0005319 C119.300664,58.0005319 121.541997,59.1245319 123.541997,61.3751985 C127.33133,65.7071984 129.228663,70.8538649 129.228663,76.8125314 C129.228663,82.7698646 127.104663,85.7498645 122.853997,85.7498645 L122.853997,85.7498645 Z M133.29133,89.7498644 L143.041996,89.7498644 L138.104663,71.0618649 C137.31133,68.437865 136.916663,66.0511983 136.916663,63.9058651 C136.916663,61.7605318 137.29133,60.6871985 138.041997,60.6871985 C138.79133,60.6871985 139.82333,61.3431985 141.13533,62.6565318 C142.44733,63.9685317 143.560663,65.2911984 144.47933,66.6245317 L145.916663,68.6245316 L148.60333,66.1245317 C147.228663,63.4565317 145.47933,61.0191985 143.353996,58.8125319 C139.228663,54.5191986 135.644663,52.3751987 132.60333,52.3751987 C129.01933,52.3751987 127.228663,55.144532 127.228663,60.6871985 C127.228663,61.6045318 127.269997,62.2911984 127.353997,62.7498651 C126.728663,60.6245318 125.541997,58.7498652 123.79133,57.1245319 C120.456664,53.956532 116.697997,52.3751987 112.509997,52.3751987 C108.323331,52.3751987 104.967331,53.800532 102.447331,56.6565319 C99.9259975,59.5098652 98.6659975,63.0818651 98.6659975,67.3751983 C98.6659975,74.0418648 100.831331,79.667198 105.165997,84.2498646 C109.497997,88.8325311 114.581997,91.1245311 120.416664,91.1245311 C123.33133,91.1245311 125.748664,90.3231977 127.665997,88.7191978 C129.581997,87.1125312 130.83133,85.0191979 131.416663,82.4378646 L133.29133,89.7498644 Z" id="path194" transform="translate(123.634664, 71.749865) scale(1, -1) translate(-123.634664, -71.749865) "></path>
            <path d="M166.624929,70.9370649 C175.332929,84.3943979 183.146262,91.1250644 190.062262,91.1250644 C192.395595,91.1250644 194.146262,90.4157311 195.312928,88.9997311 C196.479595,87.5810645 197.062262,85.7917312 197.062262,83.6250646 C197.062262,81.4570646 196.094262,77.7063981 194.155595,72.3743982 C192.218262,67.041065 191.250262,63.7383984 191.250262,62.4677318 C191.250262,61.1970651 191.562262,60.5623985 192.187595,60.5623985 C193.020929,60.5623985 194.250262,61.4250651 195.874262,63.1557318 C197.499595,64.885065 198.936928,66.7063983 200.187595,68.625065 L202.812928,66.125065 C200.312928,61.5810651 197.572928,58.1557319 194.594262,55.8437319 C191.614262,53.5303987 189.198262,52.3743987 187.343595,52.3743987 C185.488929,52.3743987 184.042262,52.9903987 182.999595,54.2183986 C181.958262,55.4477319 181.436929,57.1250652 181.436929,59.2490652 C181.436929,61.3743985 182.280929,64.8437317 183.968929,69.6557316 C185.655595,74.4677315 186.499595,77.8850647 186.499595,79.906398 C186.499595,81.9250646 185.812929,82.9370646 184.436929,82.9370646 C182.854262,82.9370646 180.979595,81.9250646 178.812929,79.906398 C176.646262,77.8850647 174.540929,75.4157314 172.499596,72.4997315 C169.250262,67.8317316 165.936929,62.4570651 162.562263,56.3743986 L160.875596,53.3743987 L152.062263,53.3743987 L153.999596,59.2490652 C157.624929,70.0810649 159.436929,76.5103981 159.436929,78.530398 C159.436929,80.550398 159.103596,81.562398 158.436929,81.562398 C157.228929,81.562398 155.791596,80.1250647 154.124929,77.2490647 C153.750263,76.5810648 153.436929,76.0503981 153.187596,75.6557314 C152.93693,75.2597315 152.655596,74.7810648 152.343596,74.2183981 C152.031596,73.6557315 151.83293,73.3117315 151.750263,73.1863982 L147.562263,75.6250648 C150.81293,80.9157313 153.791596,84.8223979 156.499596,87.3437311 C159.208929,89.8623978 161.979596,91.1250644 164.812929,91.1250644 C166.103596,91.1250644 167.218262,90.5810644 168.155596,89.4997311 C169.094262,88.4157311 169.562262,87.1037312 169.562262,85.5623979 C169.562262,84.0197312 169.436929,82.5103979 169.187596,81.030398 C168.936929,79.550398 168.676929,78.322398 168.406262,77.3437314 C168.135596,76.3623981 167.780929,75.1037315 167.343596,73.5623982 C166.906262,72.0197315 166.666263,71.1437316 166.624929,70.9370649" id="path198" transform="translate(175.187596, 71.749732) scale(1, -1) translate(-175.187596, -71.749732) "></path>
            <path d="M216.759061,23.3135994 C216.759061,16.6055996 219.341728,13.250933 224.508394,13.250933 C229.343061,13.250933 233.321728,16.4802663 236.447061,22.9389328 C237.904394,25.980266 238.633727,28.4389326 238.633727,30.3135992 C238.633727,37.0642657 236.071061,40.4389323 230.947061,40.4389323 C227.529728,40.4389323 224.311061,38.8642657 221.289728,35.7202658 C218.268395,32.5735992 216.759061,28.4389326 216.759061,23.3135994 M235.759061,15.7509329 C231.384394,9.95759975 226.155061,7.06293316 220.071061,7.06293316 C215.987061,7.06293316 212.529728,8.55226645 209.696395,11.5322664 C206.861728,14.510933 205.447062,18.3135995 205.447062,22.9389328 C205.447062,29.1455993 207.780395,34.5109325 212.447061,39.0322657 C217.112395,43.5522656 222.341728,45.8135989 228.133728,45.8135989 C231.133728,45.8135989 233.705727,45.2202655 235.852394,44.0322656 C237.999061,42.8442656 239.384394,41.2309323 240.008394,39.1882657 C241.924394,47.0629322 244.685727,56.1989319 248.289727,66.5949317 C251.893727,76.9895981 255.217727,85.1682645 258.25906,91.1255977 L268.25906,91.1255977 C264.384393,83.4575979 259.612394,70.4695982 253.94706,52.1575987 C248.280394,33.8442658 245.447061,22.3962661 245.447061,17.8135996 C245.447061,16.1882663 245.780394,15.3762663 246.447061,15.3762663 C248.112394,15.3762663 250.780394,18.0202662 254.44706,23.3135994 L257.133727,20.8135995 C254.508394,16.1455996 251.696394,12.6882663 248.696394,10.4389331 C245.696394,8.18826646 243.289727,7.06293316 241.477727,7.06293316 C239.665727,7.06293316 238.248394,7.72026647 237.228394,9.03226644 C236.205727,10.3442664 235.696394,12.250933 235.696394,14.750933 C235.696394,14.8335996 235.705727,14.9895996 235.728394,15.2202663 C235.748394,15.4495996 235.759061,15.6255996 235.759061,15.7509329" id="path202" transform="translate(236.853061, 49.094265) scale(1, -1) translate(-236.853061, -49.094265) "></path>
            <path d="M266.430927,53.8126653 C263.701593,54.7699986 261.75226,55.9059986 260.586927,57.2193319 C259.42026,58.5313319 258.837594,59.9793318 258.837594,61.5619985 C258.837594,63.1446651 259.274927,64.4566651 260.149593,65.500665 C261.02426,66.5419983 262.18026,67.0633317 263.618927,67.0633317 C265.05626,67.0633317 266.326927,66.6353317 267.430927,65.7819984 C268.533593,64.9259984 269.086927,63.7193317 269.086927,62.1566651 C269.086927,60.5939985 268.126927,59.2913319 266.21226,58.2499985 C267.794927,56.8753319 270.21226,56.1873319 273.461593,56.1873319 C280.502926,56.1873319 284.02426,58.1873319 284.02426,62.1873318 C284.02426,64.6873317 281.794926,66.6873317 277.337593,68.1873316 C275.502926,68.8126649 273.658926,69.4793316 271.805593,70.1873316 C269.95226,70.8953316 268.337593,71.9379982 266.961593,73.3126648 C265.586927,74.6873315 264.837593,76.3539981 264.71226,78.3126647 C264.71226,81.1446646 265.649593,83.5419979 267.52426,85.5006645 C271.065593,89.2499978 276.357593,91.1246644 283.40026,91.1246644 C286.857593,91.1246644 289.920259,90.4686644 292.586926,89.1566644 C295.252259,87.8433311 296.586926,86.1446645 296.586926,84.0619979 C296.586926,81.9793313 296.056259,80.4793313 294.993593,79.561998 C293.930926,78.6446647 292.689593,78.1873314 291.274926,78.1873314 C289.857593,78.1873314 288.658926,78.5726647 287.681593,79.3433313 C286.701593,80.113998 286.21226,81.1873313 286.21226,82.5619979 C286.21226,83.9379979 287.024259,85.1246645 288.649593,86.1246645 C287.649593,86.8326645 285.92026,87.1873312 283.461593,87.1873312 C281.002926,87.1873312 278.794926,86.8233312 276.837593,86.0939978 C274.877593,85.3633312 273.90026,84.3753312 273.90026,83.1246646 C273.90026,81.8753313 274.618926,80.8326646 276.05626,80.0006647 C277.493593,79.1673314 279.233593,78.3953314 281.274926,77.6873314 C283.314926,76.9793314 285.357593,76.1673314 287.400259,75.2499981 C289.440259,74.3326648 291.180259,73.0193315 292.618926,71.3126649 C294.056259,69.6046649 294.774926,67.500665 294.774926,65.000665 C294.774926,62.5006651 293.752259,60.2286652 291.712259,58.1873319 C287.837593,54.3126653 282.545593,52.375332 275.837593,52.375332 C272.294927,52.375332 269.158927,52.855332 266.430927,53.8126653" id="path206" transform="translate(277.712260, 71.749998) scale(1, -1) translate(-277.712260, -71.749998) "></path>
        </g>
    </g>
</svg>