<?xml version="1.0" encoding="UTF-8"?>
<svg width="24px" height="18px" viewBox="0 0 24 18" version="1.1" xmlns="http://www.w3.org/2000/svg" xmlns:xlink="http://www.w3.org/1999/xlink">
    <!-- Generator: Sketch 53.2 (72643) - https://sketchapp.com -->
    <title>iconfinder_menu-alt_134216</title>
    <desc>Created with Sketch.</desc>
    <g id="Page-1" stroke="none" stroke-width="1" fill="none" fill-rule="evenodd">
        <g id="iconfinder_menu-alt_134216" fill="#FFFFFF" fill-rule="nonzero">
            <path d="M1.71428571,3.42857143 L22.2857143,3.42857143 C23.232,3.42857143 24,2.66057143 24,1.71428571 C24,0.768 23.232,0 22.2857143,0 L1.71428571,0 C0.768,0 0,0.768 0,1.71428571 C0,2.66057143 0.768,3.42857143 1.71428571,3.42857143 Z M22.2857143,6.85714286 L1.71428571,6.85714286 C0.768,6.85714286 0,7.62514286 0,8.57142857 C0,9.51771429 0.768,10.2857143 1.71428571,10.2857143 L22.2857143,10.2857143 C23.232,10.2857143 24,9.51771429 24,8.57142857 C24,7.62514286 23.232,6.85714286 22.2857143,6.85714286 Z M22.2857143,13.7142857 L1.71428571,13.7142857 C0.768,13.7142857 0,14.4822857 0,15.4285714 C0,16.3748571 0.768,17.1428571 1.71428571,17.1428571 L22.2857143,17.1428571 C23.232,17.1428571 24,16.3748571 24,15.4285714 C24,14.4822857 23.232,13.7142857 22.2857143,13.7142857 Z" id="Shape"></path>
        </g>
    </g>
</svg>