<?xml version="1.0" encoding="UTF-8"?>
<svg width="487px" height="438px" viewBox="0 0 487 438" version="1.1" xmlns="http://www.w3.org/2000/svg" xmlns:xlink="http://www.w3.org/1999/xlink">
    <!-- Generator: Sketch 53.2 (72643) - https://sketchapp.com -->
    <title>Group</title>
    <desc>Created with Sketch.</desc>
    <defs>
        <linearGradient x1="0%" y1="49.9881997%" x2="100%" y2="49.9881997%" id="linearGradient-1">
            <stop stop-color="#315676" offset="0%"></stop>
            <stop stop-color="#E1B9E0" offset="100%"></stop>
        </linearGradient>
    </defs>
    <g id="Page-1" stroke="none" stroke-width="1" fill="none" fill-rule="evenodd">
        <g id="Group">
            <g id="Image" fill="#EAF1FB">
                <path d="M189.647821,436.954057 C312.90648,424.421335 414.927429,334.112695 459.630176,219 C504.332923,103.887305 336.026336,5.82840011 214.802427,0.210407985 C93.578518,-5.40758414 0,102.29674 0,224.973714 C0,347.650688 66.3891613,449.48678 189.647821,436.954057 Z" id="Oval" transform="translate(233.500000, 219.000000) scale(-1, 1) translate(-233.500000, -219.000000) "></path>
            </g>
            <g id="Artboard-34" transform="translate(32.000000, 103.000000)">
                <path d="M209.48,92.53 C209.48,100.4 200.58,107 198.64,114.26 C196.64,121.78 200.98,131.93 197.18,138.51 C193.38,145.09 182.31,146.51 176.9,151.88 C171.49,157.25 170.19,168.3 163.52,172.16 C156.85,176.02 146.79,171.62 139.28,173.63 C132.02,175.57 125.42,184.47 117.54,184.47 C109.66,184.47 103.07,175.57 95.81,173.63 C88.3,171.63 78.14,175.97 71.57,172.16 C65,168.35 63.57,157.3 58.19,151.88 C52.81,146.46 41.77,145.18 37.91,138.51 C34.05,131.84 38.45,121.78 36.45,114.26 C34.51,107 25.61,100.4 25.61,92.53 C25.61,84.66 34.51,78.06 36.45,70.8 C38.45,63.28 34.11,53.13 37.91,46.55 C41.71,39.97 52.78,38.55 58.19,33.18 C63.6,27.81 64.89,16.76 71.57,12.9 C78.25,9.04 88.3,13.44 95.81,11.43 C103.07,9.49 109.67,0.59 117.54,0.59 C125.41,0.59 132.02,9.49 139.28,11.43 C146.79,13.43 156.94,9.09 163.52,12.9 C170.1,16.71 171.52,27.76 176.9,33.18 C182.28,38.6 193.32,39.88 197.18,46.55 C201.04,53.22 196.63,63.28 198.64,70.8 C200.58,78.06 209.48,84.66 209.48,92.53 Z" id="Path" fill="#00214E" fill-rule="nonzero"></path>
                <circle id="Oval" fill="#8C4E61" fill-rule="nonzero" cx="65.82" cy="138.25" r="17"></circle>
                <circle id="Oval" fill="#712C39" fill-rule="nonzero" cx="71.68" cy="137.25" r="16"></circle>
                <path d="M227.41,261.43 C160.561937,312.901298 67.3209324,312.489601 0.93,260.43 L49.59,237.62 C51.9073773,236.530619 54.1315001,235.253003 56.24,233.8 C56.88,233.36 57.52,232.9 58.13,232.42 C63.4258878,228.36788 67.7850832,223.220755 70.91,217.33 C74.91,209.78 76.23,201.44 76.29,192.94 C76.29,187.22 75.98,181.5 75.92,175.77 C75.88,172.603333 75.8466667,169.433333 75.82,166.26 L77.82,167.26 L83,170 L85.41,170.41 L113.29,175.15 L144.41,180.45 L145.35,212.45 L145.81,227.99 L145.81,228.32 L157.91,233.24 L227.41,261.43 Z" id="Path" fill="#8C4E61" fill-rule="nonzero"></path>
                <path d="M145.69,224.38 L144.15,224.54 C129.100623,225.859389 114.231085,220.503138 103.48,209.89 L76.1,178.48 C76.01,175.58 75.9,177.38 75.87,174.48 C75.83,171.313333 75.7966667,168.143333 75.77,164.97 L77.77,165.97 L82.97,168.66 L85.38,169.07 L113.26,173.81 L144.38,179.11 L145.32,211.11 L145.69,224.38 Z" id="Path" fill="#712C39" fill-rule="nonzero"></path>
                <path d="M70.93,103.65 C70.14,104.65 69.44,106.6 68.69,109.76 C66.96,117.09 74.54,165.22 75.99,179.38 L112.41,206.24 C124.513975,215.276561 139.974396,218.544855 154.7,215.18 C160.57,213.79 164.29,212.89 166.94,208.18 C172.06,199.18 184.63,168.39 185.45,146.67 C185.68,140.51 185.53,131.11 181.73,125.85 C179.88,123.3 178.93,123.25 179.6,119.64 C180.27,116.03 181.28,112.17 182.11,108.43 C184.4,98.1 186.23,86.43 182.92,76.15 C181.16,70.65 178.05,67.01 173.63,63.48 C168.91,59.7 166.96,59.88 164.13,65.48 C162.22,69.28 160.3,72.48 156.43,74.64 C150.82,77.75 147,75.73 141.43,75.3 C136.55,74.93 137.07,78.7 136,82.3 C134.89214,86.079001 132.497132,89.3513528 129.23,91.55 C123.157156,95.4902172 115.345818,95.5331796 109.23,91.66 C108.400357,91.0647105 107.400967,90.7526203 106.38,90.77 C103.04,90.95 102.89,94.96 102.13,97.84 C100.52,103.84 93.51,107.16 87.28,106.68 C77.12,105.92 73.5,100.26 70.93,103.65 Z" id="Path" fill="#8C4E61" fill-rule="nonzero"></path>
                <path d="M151.19,121.54 C151.464608,125.424714 152.134743,129.271288 153.19,133.02 C154.19,136.33 155.71,138.39 157.71,141.24 C158.400512,142.180933 158.999882,143.185465 159.5,144.24 C162.14,150.18 158.63,156.77 151.95,156.77 L147.82,156.77" id="Path" stroke="#00214E"></path>
                <path d="M122.16,166.57 C126.967656,171.932141 133.552902,175.373944 140.7,176.26" id="Path" stroke="#00214E"></path>
                <path d="M103.49,110.42 C112.747718,108.508508 122.269594,108.241097 131.62,109.63" id="Path" stroke="#00214E"></path>
                <path d="M162.54,110.53 C168.258108,109.197308 174.152723,108.788804 180,109.32" id="Path" stroke="#00214E"></path>
                <path d="M227.41,261.43 C160.561937,312.901298 67.3209324,312.489601 0.93,260.43 L49.59,237.62 C51.9073773,236.530619 54.1315001,235.253003 56.24,233.8 C56.88,233.36 57.52,232.9 58.13,232.42 C81.68,249.18 113.82,259.75 141.62,247.24 C148.24,244.24 154.32,239.4 157.92,233.18 L227.41,261.43 Z" id="Path" fill="url(#linearGradient-1)" fill-rule="nonzero"></path>
                <path d="M134.49,149.73 C133.010892,150.504093 132.309688,152.235227 132.83314,153.820466 C133.356591,155.405704 134.950771,156.378894 136.6,156.12" id="Path" stroke="#00214E"></path>
                <path d="M118.17,119.93 C124.28,119.93 124.28,129.31 118.17,129.36 L117.9,129.36 C111.8,129.31 111.8,119.98 117.9,119.93 L118.17,119.93 Z" id="Path" fill="#00214E" fill-rule="nonzero"></path>
                <path d="M168.44,119.27 C174.1,119.27 174.1,127.97 168.44,128.02 L168.18,128.02 C162.52,127.97 162.52,119.32 168.18,119.27 L168.44,119.27 Z" id="Path" fill="#00214E" fill-rule="nonzero"></path>
            </g>
            <g id="Artboard-48" transform="translate(373.500000, 219.474359) scale(-1, 1) translate(-373.500000, -219.474359) translate(260.000000, 67.974359)">
                <path d="M204,102.001336 C204,108.554069 195.65998,114.202641 194.435222,120.395655 C193.171582,126.783111 198.692715,135.183054 196.262639,141.055236 C193.832563,146.927419 183.908134,149.056571 180.360223,154.364868 C176.812312,159.673165 178.65917,169.609209 174.119788,174.139733 C169.580407,178.670258 159.694859,176.793882 154.348692,180.371635 C149.002525,183.949389 147.019584,193.807655 141.041597,196.286805 C135.063611,198.765955 126.772192,193.195159 120.385953,194.449317 C114.19412,195.684031 108.546624,204.025641 101.99514,204.025641 C95.4436556,204.025641 89.7961595,195.684031 83.6043265,194.449317 C77.2278077,193.195159 68.8197456,198.717344 62.9486825,196.286805 C57.0776195,193.856266 54.9585934,183.929945 49.651308,180.371635 C44.3440225,176.813326 34.4098728,178.650814 29.8704913,174.139733 C25.3311097,169.628653 27.2265688,159.712054 23.639777,154.345424 C20.0529852,148.978794 10.2160385,147.014918 7.73736122,141.035792 C5.25868395,135.056666 10.8284176,126.763667 9.5647782,120.376211 C8.34002001,114.183197 0,108.534624 0,101.981891 C0,95.4291582 8.34002001,89.7805855 9.5647782,83.5875721 C10.7992567,77.2292821 5.30728546,68.7904506 7.73736122,62.957157 C10.167437,57.1238634 20.0821461,54.9655448 23.639777,49.6572476 C27.1974079,44.3489504 25.3797112,34.4031848 29.8704913,29.9018265 C34.3612713,25.4004683 44.295421,27.2476779 49.651308,23.6699245 C55.0071949,20.0921711 56.9804164,10.243627 62.9486825,7.76447723 C68.9169486,5.28532744 77.2278077,10.8561228 83.6043265,9.59224256 C89.7961595,8.3672509 95.4436556,0.0256410256 101.99514,0.0256410256 C108.546624,0.0256410256 114.19412,8.3672509 120.385953,9.59224256 C126.772192,10.8561228 135.170534,5.32421606 141.041597,7.76447723 C146.91266,10.2047384 149.041407,20.1116154 154.348692,23.6699245 C159.655978,27.2282336 169.590127,25.322691 174.100348,29.9018265 C178.610568,34.480962 176.74427,44.3295061 180.331062,49.686414 C183.917854,55.043322 193.783961,56.9780311 196.262639,62.957157 C198.741316,68.936283 193.171582,77.2390042 194.435222,83.6167386 C195.65998,89.8000298 204,95.4486025 204,102.001336 Z" id="Path" fill="#002051" fill-rule="nonzero"></path>
                <path d="M227,264.703399 C161.769419,314.826805 70.784511,314.42589 6,263.729587 L53.4826033,241.516918 C54.9360194,240.831044 56.3528353,240.070449 57.727349,239.238196 L58.820249,238.556527 C59.2105705,238.313074 59.5911339,238.059883 59.9716973,237.796953 C65.962207,233.672634 70.8717478,228.171941 74.2867361,221.758258 C78.1899505,214.405971 79.4780113,206.284373 79.5365595,198.006965 C79.5365595,192.436756 79.2340604,186.866547 79.1755122,181.2866 C79.13648,178.20286 79.1039533,175.115873 79.0779318,172.025641 L81.029539,172.999454 L86.1037178,175.61901 L115.660809,180.634146 L146.027817,185.795353 L146.945072,216.957361 L147.4037,232.411769 L158.596167,236.959474 L167.3784,240.504153 L227,264.703399 Z" id="Path" fill="#845161" fill-rule="nonzero"></path>
                <path d="M147,217.107344 C137.168111,218.868614 127.049929,218.087755 117.603729,214.838721 C96.5282628,207.749272 82.3379698,190.646588 81,173.025641 L86.0784256,175.656071 L115.660255,180.692024 L146.052678,185.874656 L147,217.107344 Z" id="Path" fill="#69303A" fill-rule="nonzero"></path>
                <circle id="Oval" fill="#845161" fill-rule="nonzero" cx="51.5" cy="140.525641" r="16.5"></circle>
                <circle id="Oval" fill="#69303A" fill-rule="nonzero" cx="56.5" cy="138.525641" r="16.5"></circle>
                <path d="M170.679837,114.344987 C182.783193,156.451407 159.227304,205.360834 141.285973,207.361718 C97.9334231,212.241924 67.1310625,189.997944 55.0277067,147.891525 C42.9243509,105.785105 59.0200656,64.127665 90.9686509,54.8650336 C122.917236,45.6024021 158.586195,72.2288074 170.679837,114.344987 Z" id="Path" fill="#845161" fill-rule="nonzero"></path>
                <path d="M136.144778,124.025641 C136.606653,127.518905 137.426712,130.956401 138.592233,134.28481 C139.717273,137.218795 141.177851,138.998746 143.161475,141.463294 C143.843515,142.270959 144.445028,143.142181 144.957591,144.064761 C147.691241,149.287255 144.849035,155.419284 138.760002,155.800702 L135,156.025641" id="Path" stroke="#00214E"></path>
                <path d="M121.602461,150.025641 C120.216881,150.836049 119.636116,152.521306 120.233906,153.996897 C120.831696,155.472489 122.429889,156.298663 124,155.943753" id="Path" stroke="#00214E"></path>
                <path d="M143,109.025641 C149.804569,105.837431 157.6731,105.161638 165,107.136158" id="Path" stroke="#00214E"></path>
                <path d="M89,113.025641 C98.3588481,108.067089 109.355185,107.700814 119,112.026376" id="Path" stroke="#00214E"></path>
                <path d="M227,264.849018 C161.769419,314.776859 70.784511,314.377508 6,263.879005 L53.4826033,241.753002 C55.7439085,240.696288 57.9142154,239.456983 59.9716973,238.047551 C60.5962116,237.620746 61.2207259,237.17454 61.8159661,236.708933 C66.9837125,232.778323 71.2374311,227.785544 74.2867361,222.071433 C76.5920223,217.680978 78.1234262,212.9303 78.8144649,208.025641 C79.5036037,208.689445 80.2266548,209.317551 80.9807489,209.907467 C86.9725755,214.311009 93.4759372,217.981436 100.35045,220.839516 C103.68279,222.221307 107.090438,223.416298 110.557356,224.418865 C121.002362,227.44649 131.907847,228.592984 142.758875,227.804211 C144.261613,227.68781 145.774108,227.542308 147.276846,227.435606 L147.423216,232.363274 L147.423216,232.683378 L159.23044,237.455843 L227,264.849018 Z" id="Path" fill="#E65050" fill-rule="nonzero"></path>
                <path d="M145.988857,74.3093469 C146.261574,78.1417653 141.459803,78.3071235 139.122227,75.7975703 C138.518354,75.1458646 138.089798,74.3482547 137.476184,73.706276 C136.904774,73.0104576 135.986127,72.7008738 135.109389,72.908666 C134.593438,73.1491626 134.164725,73.5433262 133.882161,74.0369923 C131.992621,76.838354 131.758863,80.4762334 130.356318,83.5013149 C128.895107,86.5279941 126.220357,88.7963887 122.992954,89.7460171 C117.411991,91.3023291 112.912157,88.0632546 110.808339,83.1122369 C110.282384,81.8769142 109.133076,79.581354 107.438334,80.4665064 C105.383215,81.5461979 105.363735,84.9506305 104.92544,86.9349284 C104.468741,89.2184988 103.853645,91.4676029 103.084599,93.665978 C101.574405,98.0142348 98.4698248,101.629113 94.396608,103.782006 C88.9812237,106.612549 78.1407154,107.147531 75.5791217,100.299758 C75.3386788,99.4767178 75.0122196,98.6812163 74.6051318,97.9263823 C74.1890553,97.1621214 73.3918033,96.6821739 72.5207932,96.6716057 C72.3299702,96.682551 72.1423238,96.7252906 71.9656189,96.7980561 C71.419246,97.0560034 70.9837568,97.5012686 70.7383916,98.0528326 C70.4398288,98.786149 70.2749042,99.5668522 70.2513966,100.35812 C69.8715405,104.637978 69.2774066,109.112375 67.3294267,113.003155 C65.3814467,116.893935 61.4854869,120.327549 57.1804512,120.940347 C55.4499395,121.257293 53.6762879,120.67906 52.4663397,119.403489 C50.1287638,116.621581 51.2196326,111.388482 51.4923498,108.071591 C52.5734786,95.5724603 56.3622996,83.092783 63.4821663,72.6849462 C69.92024,63.317893 79.1634048,55.9837724 90.1694915,52.8127866 C108.986978,47.3851484 129.12909,54.6414533 144.761629,70.2240277 L144.761629,70.2823894 C145.433669,71.530314 145.850816,72.8991169 145.988857,74.3093469 Z" id="Path" fill="#002051" fill-rule="nonzero"></path>
                <path d="M145,69.3180449 C126.213691,65.1277119 104.356638,67.0182342 89.8439451,75.9348732 C64.6129838,91.4391055 59.0387016,103.133058 51.332501,115.479923 L51,116.025641 C51,115.333749 51,114.632112 51,113.930474 C51.332501,84.0524253 66.187474,58.7057828 90.1177695,51.8160957 C109.011652,46.3784077 129.235539,53.6481483 144.931544,69.2595751 L145,69.3180449 Z" id="Path" fill="#8484AB" fill-rule="nonzero"></path>
                <path d="M106.224123,166.878838 C106.489881,166.449721 106.923932,166.151679 107.420463,166.05737 C107.916994,165.963061 108.430385,166.081149 108.83548,166.382846 C110.862205,167.812471 114.564876,170.8176 119.826566,171.867936 C126.998054,173.287836 133.224387,170.428586 134.705456,172.276401 C135.543429,173.317012 134.520322,174.581306 132.561804,176.215162 C128.414184,179.303583 123.194719,180.593697 118.082413,179.794087 C111.183753,178.510342 106.000014,170.52584 106.000014,167.705492 C105.998796,167.414829 106.076223,167.129229 106.224123,166.878838 L106.224123,166.878838 Z" id="Path" fill="#FFFFFF" fill-rule="nonzero"></path>
                <path d="M104.542985,123.026015 C110.369778,122.959213 110.541716,131.863032 104.714923,132.025267 L104.457015,132.025267 C98.6302218,132.092069 98.4582837,123.197793 104.285077,123.035558 L104.542985,123.035558 L104.542985,123.026015 Z" id="Path" fill="#00214E" fill-rule="nonzero"></path>
                <path d="M152.550088,121.035926 C158.365546,120.963929 158.540216,129.871041 152.724757,130.025321 L152.457616,130.025321 C146.631883,130.087034 146.457214,121.190207 152.282947,121.025641 L152.539813,121.025641 L152.550088,121.035926 Z" id="Path" fill="#00214E" fill-rule="nonzero"></path>
            </g>
        </g>
    </g>
</svg>