<?xml version="1.0" encoding="UTF-8"?>
<svg width="240px" height="30px" viewBox="0 0 240 30" version="1.1" xmlns="http://www.w3.org/2000/svg" xmlns:xlink="http://www.w3.org/1999/xlink">
    <!-- Generator: Sketch 53.2 (72643) - https://sketchapp.com -->
    <title>SouthernLands</title>
    <desc>Created with Sketch.</desc>
    <defs>
        <linearGradient x1="50%" y1="0%" x2="50%" y2="125.613985%" id="linearGradient-1">
            <stop stop-color="#F7E368" offset="0%"></stop>
            <stop stop-color="#E6C922" offset="49.5777027%"></stop>
            <stop stop-color="#B1953F" offset="100%"></stop>
        </linearGradient>
    </defs>
    <g id="Page-1" stroke="none" stroke-width="1" fill="none" fill-rule="evenodd">
        <g id="Desktop-HD" transform="translate(-602.000000, -234.000000)" fill="url(#linearGradient-1)" fill-rule="nonzero">
            <g id="header">
                <path d="M620.49449,262.39322 C619.202932,262.962715 617.888092,263.37288 616.549931,263.623729 C615.21177,263.874578 613.946861,264 612.755165,264 C611.56347,264 610.491626,263.935594 609.539601,263.80678 C608.587576,263.677965 607.642222,263.454239 606.703512,263.135593 C605.764802,262.816948 604.955926,262.406782 604.27686,261.905085 C602.758946,260.806774 602,259.254247 602,257.247458 C602,256.054231 602.272954,254.938988 602.818871,253.901695 C603.364787,252.864402 604.077131,252.006783 604.955923,251.328814 C606.820028,249.864399 608.857197,249.132203 611.067493,249.132203 C613.717185,249.132203 615.687781,249.925416 616.979339,251.511864 C617.61846,252.311868 617.938017,253.28135 617.938017,254.420339 C617.938017,255.559328 617.408752,256.545759 616.350207,257.379661 C615.291661,258.213563 614.176544,258.630508 613.004821,258.630508 C612.725205,258.630508 612.585399,258.484747 612.585399,258.19322 C612.585399,257.901693 612.718548,257.691526 612.984848,257.562712 C613.251149,257.433898 613.570705,257.311865 613.943526,257.19661 C614.316347,257.081355 614.689163,256.942374 615.061983,256.779661 C615.980721,256.35932 616.440083,255.677971 616.440083,254.735593 C616.440083,253.793216 616.017337,253.081358 615.171832,252.6 C614.326327,252.118642 612.858367,251.877966 610.767906,251.877966 C608.677446,251.877966 607.059694,252.416944 605.914601,253.494915 C604.769508,254.572887 604.19697,255.85762 604.19697,257.349153 C604.19697,259.315264 605.055777,260.71186 606.773416,261.538983 C608.304645,262.284749 610.135435,262.657627 612.26584,262.657627 C615.927475,262.657627 618.890025,261.593231 621.153581,259.464407 C622.751385,257.972874 623.550275,256.094927 623.550275,253.830508 C623.550275,252.474569 623.077599,251.159328 622.132231,249.884746 C621.719465,249.315251 621.260104,248.752545 620.754132,248.19661 L619.236226,246.528814 C618.730255,245.972879 618.270893,245.416952 617.858127,244.861017 C616.912759,243.640672 616.440083,242.5017 616.440083,241.444068 C616.440083,240.386435 616.609847,239.47458 616.94938,238.708475 C617.288914,237.942369 617.741618,237.277969 618.307507,236.715254 C618.873396,236.15254 619.522494,235.667799 620.254821,235.261017 C621.73279,234.420335 623.297283,234 624.948347,234 C626.386371,234 627.724512,234.352539 628.96281,235.057627 C630.320943,235.816953 631,236.976263 631,238.535593 C631,239.145766 630.786963,239.681354 630.360882,240.142373 C629.9348,240.603392 629.455466,240.833898 628.922865,240.833898 C628.390264,240.833898 627.954203,240.677968 627.614669,240.366102 C627.275136,240.054236 627.105372,239.705087 627.105372,239.318644 C627.105372,238.932201 627.268479,238.518646 627.594697,238.077966 C627.920915,237.637286 628.084022,237.271188 628.084022,236.979661 C628.084022,236.688134 627.964189,236.42034 627.724518,236.176271 C627.484847,235.932202 627.178606,235.749153 626.805785,235.627119 C626.060143,235.396609 625.381087,235.281356 624.768595,235.281356 C623.357201,235.281356 622.145551,235.70847 621.133609,236.562712 C620.121666,237.416953 619.615702,238.603382 619.615702,240.122034 C619.615702,240.949157 620.121666,241.918639 621.133609,243.030508 C621.58632,243.518647 622.082298,244.037285 622.621556,244.586441 C623.160815,245.135596 623.703395,245.722031 624.249311,246.345763 C624.795228,246.969495 625.294534,247.613556 625.747245,248.277966 C626.759188,249.74238 627.265152,251.261009 627.265152,252.833898 C627.265152,254.406788 626.95891,255.830502 626.346419,257.105085 C625.733927,258.379667 624.931708,259.433894 623.939738,260.267797 C622.947768,261.101699 621.799364,261.810167 620.49449,262.39322 Z M629,258.674194 C629,257.625801 629.245081,256.615865 629.735252,255.644355 C630.225422,254.672845 630.859948,253.851616 631.638849,253.180645 C633.357802,251.726874 635.110303,251 636.896403,251 C638.682503,251 640.146277,251.496232 641.28777,252.48871 C642.429262,253.481188 643,254.721767 643,256.210484 C643,257.699201 642.607198,259.037628 641.821583,260.225806 C641.035967,261.413984 639.998568,262.34005 638.709353,263.004032 C637.420137,263.668014 636.013437,264 634.489209,264 C632.96498,264 631.66907,263.500274 630.601439,262.500806 C629.533808,261.501339 629,260.225814 629,258.674194 Z M636.027027,262 C636.671675,262 637.277775,261.798795 637.845345,261.396378 C638.412916,260.993962 638.843842,260.470828 639.138138,259.826962 C639.712716,258.592885 640,257.318585 640,256.004024 C640,254.689464 639.74775,253.693498 639.243243,253.016097 C638.738736,252.338695 638.024029,252 637.099099,252 C636.17417,252 635.259764,252.576788 634.355856,253.730382 C633.451947,254.883976 633,256.352774 633,258.136821 C633,260.712287 634.008999,262 636.027027,262 Z M660.900922,251.46129 C659.048378,256.451638 658.12212,259.477952 658.12212,260.540323 C658.12212,260.987637 658.232718,261.21129 658.453917,261.21129 C659.062215,261.21129 659.946999,260.316676 661.108295,258.527419 L662,259.387097 C661.267277,260.71506 660.399775,261.815856 659.397465,262.689516 C658.395156,263.563176 657.582952,264 656.960829,264 C655.675109,264 655.032258,263.343017 655.032258,262.029032 C655.032258,261.008597 655.267279,259.764523 655.737327,258.296774 C656.207376,256.829025 656.442396,256.088172 656.442396,256.074194 C656.373272,256.200001 656.207375,256.490051 655.9447,256.944355 C655.682026,257.398658 655.48848,257.737633 655.364055,257.96129 C655.239631,258.184947 655.035716,258.523922 654.752304,258.978226 C654.468893,259.432529 654.233872,259.788977 654.047235,260.047581 C653.860598,260.306184 653.611753,260.63817 653.300691,261.043548 C652.98963,261.448927 652.713135,261.770429 652.471198,262.008065 C652.229261,262.2457 651.942398,262.507794 651.610599,262.794355 C651.2788,263.080915 650.960831,263.301075 650.656682,263.454839 C649.965434,263.818281 649.288022,264 648.624424,264 C646.979254,264 646.156682,263.084418 646.156682,261.253226 C646.156682,260.414512 646.453914,259.11103 647.048387,257.342742 C647.64286,255.574454 647.940092,254.533066 647.940092,254.218548 C647.940092,253.904031 647.843319,253.746774 647.64977,253.746774 C647.096771,253.746774 646.329498,254.6344 645.347926,256.409677 L644,255.591935 C645.894019,252.53063 647.718885,251 649.474654,251 C650.055302,251 650.518431,251.164246 650.864055,251.492742 C651.209679,251.821238 651.37212,252.324459 651.351382,253.002419 C651.330645,253.68038 650.991939,254.889507 650.335253,256.629839 C649.678568,258.37017 649.35023,259.701608 649.35023,260.624194 C649.35023,261.127422 649.578339,261.379032 650.034562,261.379032 C650.55991,261.379032 651.18548,261.040057 651.91129,260.362097 C652.6371,259.684136 653.338706,258.855919 654.016129,257.877419 C655.094475,256.339777 656.21428,254.536569 657.375576,252.467742 L657.935484,251.46129 L660.900922,251.46129 Z M666.45098,250.871252 C667.797392,246.544364 669.169928,242.92065 670.568627,240 L673,240.202822 C672.856208,240.635511 672.503271,241.676653 671.941176,243.326279 C670.725484,246.963569 669.941178,249.478535 669.588235,250.871252 L672.666667,250.871252 L672.352941,252.209877 L669.176471,252.209877 C667.97385,256.04999 667.372549,258.385798 667.372549,259.217372 C667.372549,260.048946 667.454248,260.464727 667.617647,260.464727 C667.781047,260.464727 667.928104,260.430923 668.058824,260.363316 C668.411766,260.160493 669.169929,259.173436 670.333333,257.402116 L671.137255,258.152557 C670.261434,259.802183 669.359482,261.022483 668.431373,261.813492 C667.503263,262.604501 666.738565,263 666.137255,263 C665.535945,263 665.081701,262.783659 664.77451,262.35097 C664.467319,261.918281 664.313725,261.363907 664.313725,260.687831 C664.313725,258.970597 664.895419,256.14464 666.058824,252.209877 L664,252.209877 L664.313725,250.871252 L666.45098,250.871252 Z M681.087675,260.82446 C681.087675,260.126136 681.372297,259.004804 681.94155,257.460432 C682.510803,255.916059 682.795426,254.811514 682.795426,254.146763 C682.795426,253.482011 682.561629,253.14964 682.094028,253.14964 C681.626427,253.14964 681.060571,253.475297 680.396442,254.126619 C679.732313,254.777941 679.095302,255.573616 678.485388,256.513669 C677.482418,258.031183 676.472686,259.763539 675.456163,261.710791 L674.927573,262.677698 L672,262.677698 C672.664129,257.816283 673.301141,254.217278 673.911055,251.880576 C674.520969,249.543873 675.103767,247.549649 675.659466,245.897842 C676.215166,244.246035 676.811517,242.782261 677.448539,241.506475 C678.885225,238.578882 680.538745,236.410079 682.409149,235 L683.954257,235.705036 C682.504016,237.141974 681.172391,239.670006 679.959339,243.289209 C678.746288,246.908411 677.401109,251.900688 675.923761,258.266187 C676.005083,258.131894 676.171113,257.846525 676.421855,257.410072 C676.672598,256.973619 676.865734,256.644605 677.001271,256.423022 C677.136807,256.201438 677.343497,255.869067 677.621347,255.425899 C677.899197,254.982732 678.132994,254.630217 678.322745,254.368345 C678.512496,254.106474 678.759846,253.780817 679.064803,253.391367 C679.36976,253.001917 679.640829,252.689689 679.878018,252.454676 C680.115207,252.219663 680.396441,251.96451 680.721728,251.689209 C681.047016,251.413907 681.358745,251.195684 681.656925,251.034532 C682.348161,250.68537 683.086824,250.510791 683.872935,250.510791 C684.659047,250.510791 685.25201,250.725657 685.651842,251.155396 C686.051675,251.585134 686.251588,252.162586 686.251588,252.88777 C686.251588,253.612953 685.912752,254.831646 685.23507,256.543885 C684.557388,258.256124 684.218551,259.313667 684.218551,259.716547 C684.218551,260.119426 684.326979,260.320863 684.543837,260.320863 C685.113091,260.320863 685.973734,259.468114 687.125794,257.76259 L688,258.568345 C687.132567,260.045571 686.227874,261.153474 685.285896,261.892086 C684.343917,262.630699 683.571371,263 682.968234,263 C682.365097,263 681.900891,262.811992 681.575604,262.435971 C681.250316,262.05995 681.087675,261.522785 681.087675,260.82446 Z M692.784121,259.533871 C692.86594,261.141406 693.922756,261.945161 695.9546,261.945161 C696.70461,261.945161 697.48529,261.725002 698.296664,261.284677 C699.108038,260.844353 699.765991,260.323659 700.270543,259.722581 L701.150095,260.309677 C700.018263,262.252698 698.211448,263.440858 695.729598,263.874194 C695.184137,263.958065 694.659138,264 694.154586,264 C692.68184,264 691.45457,263.500274 690.472739,262.500806 C689.490908,261.501339 689,260.281728 689,258.841935 C689,257.402143 689.429545,256.070705 690.288646,254.847581 C691.147748,253.624456 692.22161,252.677423 693.510263,252.006452 C694.798916,251.335481 696.070504,251 697.325065,251 C698.579627,251 699.667125,251.293545 700.587591,251.880645 C701.508057,252.467745 701.978511,253.257522 701.998966,254.25 C702.019421,255.242478 701.736467,256.098652 701.150095,256.818548 C700.563724,257.538444 699.820544,258.087095 698.920532,258.464516 C697.134146,259.20538 695.381877,259.575806 693.663673,259.575806 L692.784121,259.533871 Z M693,258 C694.484957,257.942857 695.678925,257.689288 696.58194,257.239286 C697.484954,256.789283 698.113711,256.275003 698.468227,255.696429 C698.822744,255.117854 699,254.510717 699,253.875 C699,253.239283 698.846155,252.767859 698.538462,252.460714 C698.230768,252.15357 697.903012,252 697.555184,252 C696.698992,252 695.913047,252.317854 695.197324,252.953571 C694.481602,253.589289 693.936457,254.36071 693.561873,255.267857 C693.187289,256.175005 693,257.08571 693,258 Z M714.949367,253.602649 C714.436284,253.602649 713.828695,253.923838 713.126582,254.566225 C712.424469,255.208612 711.742619,255.993373 711.081013,256.92053 C710.027843,258.403981 708.954436,260.112573 707.860759,262.046358 L707.313924,263 L704.458228,263 L705.086076,261.13245 C706.260765,257.688725 706.848101,255.645699 706.848101,255.003311 C706.848101,254.360924 706.740085,254.039735 706.524051,254.039735 C706.132487,254.039735 705.666669,254.496684 705.126582,255.410596 C705.005063,255.622518 704.903798,255.79139 704.822785,255.917219 C704.741772,256.043047 704.650633,256.195363 704.549367,256.374172 C704.448101,256.552981 704.383966,256.662251 704.356962,256.701987 L703,255.927152 C704.05317,254.245025 705.018561,253.003315 705.896203,252.201987 C706.773844,251.400658 707.671725,251 708.589873,251 C709.008441,251 709.369619,251.172184 709.673418,251.516556 C709.977217,251.860929 710.129114,252.26821 710.129114,252.738411 C710.129114,253.208612 710.10211,253.625826 710.048101,253.990066 C709.994093,254.354306 709.933334,254.68874 709.865823,254.993377 C709.798312,255.298015 709.703798,255.66225 709.582278,256.086093 C709.460759,256.509936 709.36287,256.834436 709.288608,257.059603 C709.214346,257.284769 709.116456,257.589402 708.994937,257.97351 C708.873417,258.357618 708.799156,258.582781 708.772152,258.649007 C709.015191,258.172183 709.427001,257.470203 710.007595,256.543046 C710.588189,255.615889 710.966244,255.033114 711.141772,254.794702 C711.3173,254.55629 711.560336,254.238413 711.870886,253.84106 C712.181436,253.443707 712.454851,253.135763 712.691139,252.917219 C712.927427,252.698674 713.210969,252.447021 713.541772,252.162252 C713.872575,251.877482 714.186496,251.662252 714.483544,251.516556 C715.239666,251.172184 715.968773,251 716.670886,251 C717.372999,251 717.936707,251.201985 718.362025,251.60596 C718.787344,252.009936 719,252.48013 719,253.016556 C719,253.552983 718.82785,254.023177 718.483544,254.427152 C718.139239,254.831128 717.740931,255.033113 717.288608,255.033113 C716.836285,255.033113 716.481858,254.956954 716.225316,254.804636 C715.968775,254.652317 715.793249,254.490067 715.698734,254.317881 C715.415188,253.841057 715.165402,253.602649 714.949367,253.602649 Z M724.210407,257.772581 C727.047525,253.257504 729.592749,251 731.846154,251 C732.606339,251 733.176469,251.237632 733.556561,251.712903 C733.936653,252.188174 734.126697,252.789244 734.126697,253.516129 C734.126697,254.243014 733.811089,255.501066 733.179864,257.290323 C732.548639,259.079579 732.233032,260.187363 732.233032,260.61371 C732.233032,261.040056 732.334841,261.253226 732.538462,261.253226 C732.809956,261.253226 733.210405,260.963175 733.739819,260.383065 C734.269233,259.802954 734.737555,259.191401 735.144796,258.548387 L736,259.387097 C735.185516,260.91076 734.292991,262.06048 733.322398,262.83629 C732.351805,263.612101 731.564483,264 730.960407,264 C730.356332,264 729.884617,263.793819 729.545249,263.381452 C729.205881,262.969084 729.036199,262.406455 729.036199,261.693548 C729.036199,260.980642 729.311083,259.816944 729.86086,258.202419 C730.410636,256.587895 730.68552,255.44167 730.68552,254.76371 C730.68552,254.085749 730.461541,253.746774 730.013575,253.746774 C729.497735,253.746774 728.886881,254.085749 728.180995,254.76371 C727.47511,255.44167 726.789596,256.269888 726.124434,257.248387 C725.065606,258.813986 723.986431,260.617194 722.886878,262.658065 L722.337104,263.664516 L719.466063,263.664516 L720.097285,261.693548 C721.278286,258.059122 721.868778,255.90296 721.868778,255.225 C721.868778,254.54704 721.760182,254.208065 721.542986,254.208065 C721.149319,254.208065 720.680998,254.690318 720.138009,255.654839 C720.015836,255.878496 719.914028,256.05672 719.832579,256.189516 C719.751131,256.322312 719.659503,256.483064 719.557692,256.671774 C719.455882,256.860485 719.391403,256.975806 719.364253,257.017742 L718,256.2 C719.058829,254.424722 720.029407,253.114252 720.911765,252.268548 C721.794122,251.422845 722.696828,251 723.61991,251 C724.040726,251 724.403845,251.181719 724.709276,251.545161 C725.014707,251.908604 725.167421,252.348922 725.167421,252.866129 C725.167421,253.383336 725.126697,253.890051 725.045249,254.38629 C724.9638,254.882529 724.87896,255.294891 724.790724,255.623387 C724.702488,255.951883 724.587105,256.374729 724.44457,256.891935 C724.302035,257.409142 724.223982,257.702688 724.210407,257.772581 Z M777.277999,239.873984 C777.277999,236.96069 775.893135,235.504065 773.123366,235.504065 C771.922677,235.504065 770.885735,235.869915 770.012507,236.601626 C769.139279,237.333337 768.463902,238.275062 767.986356,239.426829 C767.508809,240.578597 767.041503,241.967472 766.584423,243.593496 C766.127343,245.21952 765.721434,246.83197 765.366686,248.430894 C764.479814,252.374003 763.224568,255.659878 761.60091,258.288618 C762.0921,258.505421 762.842519,258.854334 763.852189,259.335366 C764.861858,259.816398 765.673675,260.192411 766.287663,260.463415 C768.006831,261.235776 769.51449,261.621951 770.810688,261.621951 C771.383744,261.621951 771.922681,261.479676 772.427516,261.195122 C772.93235,260.910568 773.317793,260.602305 773.583854,260.270325 C773.849916,259.938345 774.081864,259.630083 774.279704,259.345528 C774.477545,259.060974 774.59693,258.918699 774.637862,258.918699 L775.55884,259.447154 C774.358152,261.696488 773.089262,263.092138 771.752132,263.634146 C771.151788,263.87805 770.380903,264 769.439454,264 C768.498006,264 767.464474,263.834012 766.338829,263.502033 C765.213184,263.170053 763.951116,262.692415 762.552587,262.069106 C761.154058,261.445796 760.16828,261.032521 759.595225,260.829268 C758.50369,261.764232 757.108593,262.52642 755.409892,263.115854 C753.711191,263.705287 751.763513,264 749.566799,264 C748.46162,264 747.458788,263.79675 746.558272,263.390244 C744.852749,262.604332 744,261.608407 744,260.402439 C744,259.196471 744.375209,258.180221 745.12564,257.353659 C746.558279,255.781835 748.543478,254.995935 751.081296,254.995935 C752.895973,254.995935 754.812952,255.36856 756.832291,256.113821 C757.569077,256.398375 758.530978,256.791325 759.718022,257.292683 C760.304722,255.680209 760.802727,253.823859 761.212052,251.723577 C761.621378,249.623296 762.003409,247.885508 762.358158,246.510163 C762.712907,245.134817 763.077883,243.867892 763.453098,242.70935 C763.828313,241.550807 764.319497,240.42277 764.926663,239.325203 C765.533829,238.227637 766.205795,237.292687 766.942581,236.520325 C768.566239,234.8401 770.681056,234 773.287095,234 C775.265502,234 776.878902,234.5691 778.127345,235.707317 C779.375788,236.845534 780,238.444434 780,240.504065 C780,242.035238 779.689599,243.522351 779.068789,244.965447 C778.447979,246.408544 777.625929,247.678856 776.602615,248.776423 C775.579301,249.873989 774.395686,250.802164 773.051734,251.560976 C771.707782,252.319787 770.319507,252.821137 768.886868,253.065041 L768.600341,251.947154 C770.264932,251.540648 771.765769,250.710711 773.102899,249.457317 C774.440029,248.203923 775.47015,246.733748 776.193292,245.046748 C776.916433,243.359748 777.277999,241.63551 777.277999,239.873984 Z M745,260.255088 C745,261.390422 745.68827,262.152091 747.06483,262.540117 C749.916276,263.34491 752.753633,263.093416 755.576985,261.785626 C756.630475,261.28263 757.438139,260.657487 758,259.910178 C755.190694,257.97005 752.641286,257 750.351702,257 C746.783883,257 745,258.085018 745,260.255088 Z M788.093867,251.46129 L791.217772,251.46129 L789.635795,257.730645 C789.382143,258.611295 789.255319,259.411556 789.255319,260.131452 C789.255319,260.851348 789.375468,261.21129 789.61577,261.21129 C789.856071,261.21129 790.186481,260.991131 790.607009,260.550806 C791.027537,260.110482 791.384646,259.666669 791.678348,259.219355 L792.138924,258.548387 L793,259.387097 C792.559447,260.281725 791.998752,261.099459 791.317897,261.840323 C789.996239,263.280115 788.848148,264 787.873592,264 C786.725484,264 786.151439,263.070439 786.151439,261.21129 C786.151439,260.903762 786.164789,260.673119 786.191489,260.519355 C785.991238,261.232262 785.610766,261.861288 785.050063,262.406452 C783.982056,263.468823 782.777228,264 781.435544,264 C780.093861,264 779.019195,263.521241 778.211514,262.56371 C777.403834,261.606178 777,260.407534 777,258.967742 C777,256.731172 777.694194,254.844094 779.082603,253.306452 C780.471012,251.76881 782.099699,251 783.968711,251 C784.903217,251 785.67751,251.269083 786.291615,251.807258 C786.905719,252.345433 787.306215,253.047845 787.493116,253.914516 L788.093867,251.46129 Z M784.057143,253 C783.320631,253 782.631749,253.327699 781.990476,253.983108 C781.349203,254.638517 780.857145,255.429049 780.514286,256.35473 C780.171427,257.28041 780,258.182428 780,259.060811 C780,259.939194 780.180951,260.648646 780.542857,261.189189 C780.904764,261.729732 781.463488,262 782.219048,262 C782.974607,262 783.65714,261.635139 784.266667,260.905405 C785.422228,259.499993 786,257.831091 786,255.898649 C786,253.966207 785.352387,253 784.057143,253 Z M799.210407,257.772581 C802.047525,253.257504 804.592749,251 806.846154,251 C807.606339,251 808.176469,251.237632 808.556561,251.712903 C808.936653,252.188174 809.126697,252.789244 809.126697,253.516129 C809.126697,254.243014 808.811089,255.501066 808.179864,257.290323 C807.548639,259.079579 807.233032,260.187363 807.233032,260.61371 C807.233032,261.040056 807.334841,261.253226 807.538462,261.253226 C807.809956,261.253226 808.210405,260.963175 808.739819,260.383065 C809.269233,259.802954 809.737555,259.191401 810.144796,258.548387 L811,259.387097 C810.185516,260.91076 809.292991,262.06048 808.322398,262.83629 C807.351805,263.612101 806.564483,264 805.960407,264 C805.356332,264 804.884617,263.793819 804.545249,263.381452 C804.205881,262.969084 804.036199,262.406455 804.036199,261.693548 C804.036199,260.980642 804.311083,259.816944 804.86086,258.202419 C805.410636,256.587895 805.68552,255.44167 805.68552,254.76371 C805.68552,254.085749 805.461541,253.746774 805.013575,253.746774 C804.497735,253.746774 803.886881,254.085749 803.180995,254.76371 C802.47511,255.44167 801.789596,256.269888 801.124434,257.248387 C800.065606,258.813986 798.986431,260.617194 797.886878,262.658065 L797.337104,263.664516 L794.466063,263.664516 L795.097285,261.693548 C796.278286,258.059122 796.868778,255.90296 796.868778,255.225 C796.868778,254.54704 796.760182,254.208065 796.542986,254.208065 C796.149319,254.208065 795.680998,254.690318 795.138009,255.654839 C795.015836,255.878496 794.914028,256.05672 794.832579,256.189516 C794.751131,256.322312 794.659503,256.483064 794.557692,256.671774 C794.455882,256.860485 794.391403,256.975806 794.364253,257.017742 L793,256.2 C794.058829,254.424722 795.029407,253.114252 795.911765,252.268548 C796.794122,251.422845 797.696828,251 798.61991,251 C799.040726,251 799.403845,251.181719 799.709276,251.545161 C800.014707,251.908604 800.167421,252.348922 800.167421,252.866129 C800.167421,253.383336 800.126697,253.890051 800.045249,254.38629 C799.9638,254.882529 799.87896,255.294891 799.790724,255.623387 C799.702488,255.951883 799.587105,256.374729 799.44457,256.891935 C799.302035,257.409142 799.223982,257.702688 799.210407,257.772581 Z M822.651741,260.209665 C821.2587,262.069898 819.593708,263 817.656716,263 C816.356544,263 815.255394,262.521566 814.353234,261.564684 C813.451073,260.607802 813,259.386625 813,257.901115 C813,255.907053 813.742944,254.184022 815.228856,252.73197 C816.714767,251.279918 818.379759,250.553903 820.223881,250.553903 C821.179109,250.553903 821.998338,250.744608 822.681592,251.126022 C823.364846,251.507437 823.805969,252.026019 824.004975,252.681784 C824.61526,250.152404 825.49419,247.218232 826.641791,243.879182 C827.789392,240.540132 828.847425,237.913764 829.81592,236 L833,236 C831.766163,238.462466 830.247107,242.634543 828.442786,248.516357 C826.638465,254.398171 825.736318,258.075086 825.736318,259.547212 C825.736318,260.069148 825.842453,260.330112 826.054726,260.330112 C826.585409,260.330112 827.434488,259.480306 828.60199,257.780669 L829.457711,258.583643 C828.621886,260.082535 827.726373,261.193305 826.771144,261.915985 C825.815916,262.638665 825.049754,263 824.472637,263 C823.89552,263 823.444446,262.789221 823.119403,262.367658 C822.79436,261.946095 822.631841,261.333833 822.631841,260.530855 C822.631841,260.504089 822.635158,260.453904 822.641791,260.380297 C822.648425,260.306691 822.651741,260.249814 822.651741,260.209665 Z M816,258.668966 C816,260.889666 816.826658,262 818.48,262 C820.026674,262 821.299995,260.931045 822.3,258.793103 C822.766669,257.786202 823,256.972417 823,256.351724 C823,254.11723 822.180008,253 820.54,253 C819.446661,253 818.416672,253.520684 817.45,254.562069 C816.483328,255.603453 816,256.972405 816,258.668966 Z M832.403974,263.517742 C831.543042,263.196235 830.927154,262.815325 830.556291,262.375 C830.185429,261.934675 830,261.448927 830,260.917742 C830,260.386556 830.139071,259.946238 830.417219,259.596774 C830.695366,259.24731 831.062912,259.072581 831.519868,259.072581 C831.976823,259.072581 832.380793,259.215859 832.731788,259.502419 C833.082783,259.78898 833.258278,260.194352 833.258278,260.718548 C833.258278,261.242745 832.953645,261.679568 832.344371,262.029032 C832.847685,262.490325 833.615889,262.720968 834.649007,262.720968 C836.887428,262.720968 838.006623,262.050007 838.006623,260.708065 C838.006623,259.869351 837.29802,259.19839 835.880795,258.695161 C835.29801,258.485483 834.711923,258.261829 834.122517,258.024194 C833.53311,257.786558 833.01987,257.437099 832.582781,256.975806 C832.145693,256.514514 831.907285,255.95538 831.86755,255.298387 C831.86755,254.347845 832.16556,253.544089 832.761589,252.887097 C833.887423,251.629026 835.569525,251 837.807947,251 C838.90729,251 839.88079,251.220159 840.728477,251.660484 C841.576163,252.100809 842,252.670427 842,253.369355 C842,254.068283 841.831128,254.571504 841.493377,254.879032 C841.155627,255.186561 840.761592,255.340323 840.311258,255.340323 C839.860925,255.340323 839.480134,255.211023 839.168874,254.952419 C838.857614,254.693816 838.701987,254.333873 838.701987,253.872581 C838.701987,253.411288 838.960262,253.012905 839.476821,252.677419 C839.158939,252.439784 838.609275,252.320968 837.827815,252.320968 C837.046354,252.320968 836.344374,252.443278 835.721854,252.687903 C835.099335,252.932528 834.788079,253.264514 834.788079,253.683871 C834.788079,254.103228 835.016554,254.452687 835.47351,254.732258 C835.930466,255.011829 836.48344,255.270429 837.13245,255.508065 C837.78146,255.7457 838.43046,256.018278 839.07947,256.325806 C839.72848,256.633335 840.281455,257.073653 840.738411,257.646774 C841.195367,258.219895 841.423841,258.925802 841.423841,259.764516 C841.423841,260.60323 841.099341,261.36505 840.450331,262.05 C839.218537,263.350007 837.536435,264 835.403974,264 C834.27814,264 833.27815,263.839249 832.403974,263.517742 Z" id="SouthernLands"></path>
            </g>
        </g>
    </g>
</svg>