<?xml version="1.0" encoding="UTF-8"?>
<svg width="112px" height="16px" viewBox="0 0 112 16" version="1.1" xmlns="http://www.w3.org/2000/svg" xmlns:xlink="http://www.w3.org/1999/xlink">
    <!-- Generator: Sketch 53.2 (72643) - https://sketchapp.com -->
    <title>Southernlands</title>
    <desc>Created with Sketch.</desc>
    <defs>
        <linearGradient x1="50%" y1="0%" x2="50%" y2="125.613985%" id="linearGradient-1">
            <stop stop-color="#F7E368" offset="0%"></stop>
            <stop stop-color="#E6C922" offset="49.5777027%"></stop>
            <stop stop-color="#B1953F" offset="100%"></stop>
        </linearGradient>
    </defs>
    <g id="Page-1" stroke="none" stroke-width="1" fill="none" fill-rule="evenodd">
        <g id="Desktop-HD" transform="translate(-664.000000, -126.000000)" fill="url(#linearGradient-1)" fill-rule="nonzero">
            <g id="header">
                <g id="logo" transform="translate(664.000000, 84.000000)">
                    <path d="M10.2038567,57.1430508 C9.49127284,57.4467812 8.76584391,57.6655361 8.02754821,57.799322 C7.28925251,57.933108 6.59137152,58 5.9338843,58 C5.27639708,58 4.68503477,57.9656501 4.15977961,57.8969492 C3.63452446,57.8282482 3.11295025,57.7089274 2.59504132,57.5389831 C2.0771324,57.3690387 1.63085587,57.1502838 1.25619835,56.8827119 C0.418728595,56.2969462 0,55.4689319 0,54.3986441 C0,53.7622567 0.150595372,53.1674604 0.451790634,52.6142373 C0.752985895,52.0610142 1.14600309,51.6036176 1.63085399,51.2420339 C2.65932562,50.461013 3.78328132,50.0705085 5.00275482,50.0705085 C6.46465377,50.0705085 7.5518789,50.4935551 8.26446281,51.339661 C8.61708165,51.7663298 8.79338843,52.2833868 8.79338843,52.8908475 C8.79338843,53.4983081 8.50138033,54.0244046 7.91735537,54.4691525 C7.33333041,54.9139005 6.71809322,55.1362712 6.07162534,55.1362712 C5.9173546,55.1362712 5.84022039,55.0585319 5.84022039,54.9030508 C5.84022039,54.7475698 5.91368154,54.6354806 6.06060606,54.5667797 C6.20753058,54.4980788 6.38383736,54.4329947 6.58953168,54.3715254 C6.79522601,54.3100562 7.00091725,54.2359326 7.20661157,54.1491525 C7.71350116,53.9249706 7.96694215,53.5615844 7.96694215,53.0589831 C7.96694215,52.5563817 7.73370298,52.1767244 7.26721763,51.92 C6.80073229,51.6632756 5.99082303,51.5349153 4.83746556,51.5349153 C3.6841081,51.5349153 2.79155504,51.82237 2.15977961,52.3972881 C1.52800419,52.9722063 1.21212121,53.6573972 1.21212121,54.4528814 C1.21212121,55.5014742 1.68594567,56.2463255 2.63360882,56.6874576 C3.47842479,57.0851997 4.4885157,57.2840678 5.66391185,57.2840678 C7.68412397,57.2840678 9.31863471,56.7163899 10.5674931,55.5810169 C11.4490402,54.7855327 11.8898072,53.7839608 11.8898072,52.5762712 C11.8898072,51.8531037 11.6290201,51.1516418 11.107438,50.4718644 C10.879705,50.1681341 10.626264,49.8680241 10.3471074,49.5715254 L9.50964187,48.6820339 C9.23048529,48.3855352 8.9770443,48.089041 8.74931129,47.7925424 C8.22772926,47.1416917 7.96694215,46.5342401 7.96694215,45.9701695 C7.96694215,45.4060989 8.06060512,44.9197761 8.24793388,44.5111864 C8.43526264,44.1025968 8.68503058,43.7482501 8.99724518,43.4481356 C9.30945978,43.1480211 9.66758292,42.8894926 10.0716253,42.6725424 C10.8870564,42.2241785 11.750225,42 12.661157,42 C13.4545494,42 14.192834,42.1880207 14.8760331,42.5640678 C15.6253481,42.9690416 16,43.5873405 16,44.4189831 C16,44.7444084 15.8824621,45.0300553 15.6473829,45.2759322 C15.4123037,45.5218091 15.1478435,45.6447458 14.8539945,45.6447458 C14.5601455,45.6447458 14.3195602,45.5615828 14.1322314,45.3952542 C13.9449026,45.2289257 13.8512397,45.0427129 13.8512397,44.8366102 C13.8512397,44.6305074 13.9412296,44.4099447 14.1212121,44.1749153 C14.3011947,43.9398858 14.3911846,43.7446335 14.3911846,43.5891525 C14.3911846,43.4336715 14.3250695,43.2908481 14.1928375,43.160678 C14.0606054,43.0305078 13.8916447,42.9328817 13.6859504,42.8677966 C13.2745618,42.7448581 12.8999099,42.6833898 12.5619835,42.6833898 C11.7832835,42.6833898 11.114787,42.9111842 10.5564738,43.3667797 C9.99816066,43.8223752 9.71900826,44.4551372 9.71900826,45.2650847 C9.71900826,45.7062169 9.99816066,46.2232739 10.5564738,46.8162712 C10.8062455,47.0766115 11.0798883,47.3532189 11.3774105,47.6461017 C11.6749326,47.9389845 11.9742868,48.2517497 12.2754821,48.5844068 C12.5766774,48.9170638 12.8521567,49.2605632 13.1019284,49.6149153 C13.6602415,50.3959361 13.9393939,51.2058715 13.9393939,52.0447458 C13.9393939,52.88362 13.7704333,53.6429345 13.4325069,54.3227119 C13.0945805,55.0024893 12.651977,55.5647435 12.1046832,56.0094915 C11.5573894,56.4542395 10.9237869,56.8320888 10.2038567,57.1430508 Z M14,55.1322581 C14,54.5677391 14.1400466,54.0239273 14.4201439,53.5008065 C14.7002412,52.9776856 15.0628275,52.5354857 15.5079137,52.1741935 C16.4901728,51.3913939 17.4916016,51 18.5122302,51 C19.5328588,51 20.3693013,51.2672016 21.0215827,51.8016129 C21.6738642,52.3360242 22,53.0040282 22,53.8056452 C22,54.6072621 21.7755418,55.3279538 21.3266187,55.9677419 C20.8776956,56.6075301 20.2848958,57.106181 19.5482014,57.4637097 C18.8115071,57.8212383 18.0076782,58 17.1366906,58 C16.2657031,58 15.5251829,57.7309167 14.9151079,57.1927419 C14.3050329,56.6545672 14,55.9677461 14,55.1322581 Z M17.7297297,57 C18.0980999,57 18.4444428,56.8993974 18.7687688,56.6981891 C19.0930947,56.4969809 19.3393385,56.2354141 19.5075075,55.9134809 C19.8358375,55.2964423 20,54.6592924 20,54.0020121 C20,53.3447318 19.8558573,52.8467488 19.5675676,52.5080483 C19.2792778,52.1693477 18.8708735,52 18.3423423,52 C17.8138112,52 17.2912939,52.2883942 16.7747748,52.8651911 C16.2582557,53.4419881 16,54.1763872 16,55.0684105 C16,56.3561433 16.5765708,57 17.7297297,57 Z M31.4504608,51.2483871 C30.5241889,53.9354973 30.0610599,55.5650509 30.0610599,56.1370968 C30.0610599,56.3779582 30.1163589,56.4983871 30.2269585,56.4983871 C30.5311075,56.4983871 30.9734994,56.0166715 31.5541475,55.0532258 L32,55.516129 C31.6336387,56.2311864 31.1998873,56.8239224 30.6987327,57.2943548 C30.1975781,57.7647873 29.7914762,58 29.4804147,58 C28.8375544,58 28.516129,57.6462401 28.516129,56.9387097 C28.516129,56.3892446 28.6336394,55.7193588 28.8686636,54.9290323 C29.1036878,54.1387057 29.2211982,53.739785 29.2211982,53.7322581 C29.1866358,53.8000003 29.1036873,53.9561816 28.9723502,54.2008065 C28.8410132,54.4454313 28.7442399,54.6279564 28.6820276,54.7483871 C28.6198154,54.8688178 28.5178579,55.0513429 28.3761521,55.2959677 C28.2344463,55.5405926 28.116936,55.7325262 28.0236175,55.8717742 C27.9302991,56.0110222 27.8058764,56.1897839 27.6503456,56.4080645 C27.4948149,56.6263452 27.3565674,56.7994617 27.2355991,56.9274194 C27.1146307,57.055377 26.971199,57.1965046 26.8052995,57.3508065 C26.6394001,57.5051083 26.4804155,57.6236555 26.328341,57.7064516 C25.9827172,57.9021515 25.6440109,58 25.312212,58 C24.4896272,58 24.078341,57.5069942 24.078341,56.5209677 C24.078341,56.0693526 24.226957,55.3674779 24.5241935,54.4153226 C24.8214301,53.4631673 24.9700461,52.9024202 24.9700461,52.7330645 C24.9700461,52.5637088 24.9216595,52.4790323 24.8248848,52.4790323 C24.5483857,52.4790323 24.164749,52.9569845 23.6739631,53.9129032 L23,53.4725806 C23.9470093,51.8241853 24.8594426,51 25.7373272,51 C26.0276512,51 26.2592157,51.08844 26.4320276,51.2653226 C26.6048396,51.4422052 26.68606,51.7131702 26.6756912,52.0782258 C26.6653225,52.4432814 26.4959694,53.0943502 26.1676267,54.0314516 C25.8392841,54.9685531 25.6751152,55.6854814 25.6751152,56.1822581 C25.6751152,56.4532272 25.7891694,56.5887097 26.0172811,56.5887097 C26.2799552,56.5887097 26.5927401,56.4061846 26.9556452,56.041129 C27.3185502,55.6760734 27.6693531,55.2301102 28.0080645,54.7032258 C28.5472377,53.8752647 29.10714,52.9043066 29.687788,51.7903226 L29.9677419,51.2483871 L31.4504608,51.2483871 Z M34.3616558,51.6719577 C35.1096624,49.4144508 35.872182,47.5238171 36.6492375,46 L38,46.1058201 C37.9201158,46.3315708 37.7240393,46.8747752 37.4117647,47.7354497 C36.7363801,49.6331665 36.3006546,50.9453226 36.1045752,51.6719577 L37.8148148,51.6719577 L37.6405229,52.3703704 L35.875817,52.3703704 C35.2076946,54.3739077 34.8736383,55.5925904 34.8736383,56.026455 C34.8736383,56.4603196 34.9190264,56.6772487 35.0098039,56.6772487 C35.1005814,56.6772487 35.18228,56.6596122 35.254902,56.6243386 C35.4509814,56.518518 35.8721827,56.003532 36.5185185,55.0793651 L36.9651416,55.4708995 C36.4785742,56.331574 35.9774899,56.9682519 35.4618736,57.3809524 C34.9462574,57.7936529 34.5214251,58 34.1873638,58 C33.8533026,58 33.6009449,57.8871263 33.4302832,57.6613757 C33.2596215,57.435625 33.1742919,57.1463862 33.1742919,56.7936508 C33.1742919,55.8977028 33.497455,54.4232907 34.1437908,52.3703704 L33,52.3703704 L33.1742919,51.6719577 L34.3616558,51.6719577 Z M42.111817,56.8345324 C42.111817,56.4604298 42.2719171,55.8597164 42.592122,55.0323741 C42.9123269,54.2050318 43.0724269,53.6133111 43.0724269,53.2571942 C43.0724269,52.9010774 42.9409162,52.7230216 42.6778907,52.7230216 C42.4148653,52.7230216 42.0965711,52.8974803 41.7229987,53.2464029 C41.3494263,53.5953255 40.9911072,54.0215802 40.6480305,54.5251799 C40.0838599,55.3381336 39.515886,56.2661818 38.9440915,57.3093525 L38.6467598,57.8273381 L37,57.8273381 C37.3735724,55.2230086 37.7318916,53.2949703 38.0749682,52.0431655 C38.4180449,50.7913606 38.7458688,49.723026 39.0584498,48.8381295 C39.3710308,47.953233 39.7064785,47.1690682 40.064803,46.4856115 C40.8729392,44.9172583 41.8030443,43.7553995 42.8551461,43 L43.7242694,43.3776978 C42.9085093,44.1474859 42.1594697,45.5017889 41.4771283,47.4406475 C40.7947869,49.3795061 40.0381236,52.0539398 39.2071156,55.4640288 C39.2528592,55.392086 39.3462509,55.2392098 39.4872935,55.0053957 C39.6283362,54.7715816 39.7369755,54.5953243 39.8132147,54.4766187 C39.889454,54.3579131 40.0057171,54.1798573 40.1620076,53.942446 C40.3182981,53.7050348 40.4498089,53.5161878 40.5565438,53.3758993 C40.6632788,53.2356108 40.8024134,53.0611521 40.9739517,52.852518 C41.1454901,52.6438838 41.2979663,52.4766193 41.431385,52.3507194 C41.5648037,52.2248195 41.7229978,52.0881302 41.905972,51.9406475 C42.0889463,51.7931647 42.264294,51.6762594 42.4320203,51.5899281 C42.8208406,51.4028768 43.2363383,51.3093525 43.678526,51.3093525 C44.1207138,51.3093525 44.4542555,51.4244593 44.6791614,51.6546763 C44.9040672,51.8848932 45.0165184,52.1942427 45.0165184,52.5827338 C45.0165184,52.971225 44.8259231,53.6240961 44.4447268,54.5413669 C44.0635305,55.4586377 43.8729352,56.0251788 43.8729352,56.2410072 C43.8729352,56.4568356 43.9339257,56.5647482 44.0559085,56.5647482 C44.3761134,56.5647482 44.8602255,56.1079182 45.5082592,55.1942446 L46,55.6258993 C45.5120687,56.4172701 45.0031793,57.0107894 44.4733164,57.4064748 C43.9434535,57.8021603 43.5088962,58 43.1696315,58 C42.8303668,58 42.5692512,57.8992816 42.386277,57.6978417 C42.2033028,57.4964019 42.111817,57.208635 42.111817,56.8345324 Z M49.0376034,55.5951613 C49.0816599,56.460757 49.6507147,56.8935484 50.7447847,56.8935484 C51.148636,56.8935484 51.5690022,56.7750012 52.005896,56.5379032 C52.4427897,56.3008053 52.7970722,56.0204317 53.068754,55.6967742 L53.5423591,56.0129032 C52.9329107,57.059145 51.9600107,57.6989236 50.6236299,57.9322581 C50.3299198,57.9774196 50.0472281,58 49.7755463,58 C48.9825291,58 48.3216913,57.7309167 47.7930132,57.1927419 C47.2643351,56.6545672 47,55.9978533 47,55.2225806 C47,54.447308 47.2312932,53.7303796 47.6938866,53.0717742 C48.1564799,52.4131688 48.734713,51.9032276 49.428603,51.5419355 C50.122493,51.1806434 50.8071944,51 51.4827275,51 C52.1582607,51 52.7438364,51.1580629 53.2394721,51.4741935 C53.7351078,51.7903242 53.988429,52.2155887 53.9994431,52.75 C54.0104572,53.2844113 53.8580974,53.7454282 53.5423591,54.1330645 C53.2266208,54.5207009 52.8264468,54.816128 52.3418252,55.0193548 C51.3799247,55.4182816 50.4363953,55.6177419 49.5112085,55.6177419 L49.0376034,55.5951613 Z M49,55 C49.7424786,54.9714284 50.3394626,54.844644 50.7909699,54.6196429 C51.2424772,54.3946417 51.5568553,54.1375014 51.7341137,53.8482143 C51.9113721,53.5589271 52,53.2553587 52,52.9375 C52,52.6196413 51.9230777,52.3839293 51.7692308,52.2303571 C51.6153838,52.0767849 51.4515059,52 51.277592,52 C50.8494962,52 50.4565235,52.158927 50.0986622,52.4767857 C49.7408009,52.7946444 49.4682284,53.1803549 49.2809365,53.6339286 C49.0936445,54.0875023 49,54.5428549 49,55 Z M60.721519,52.5182119 C60.4329099,52.5182119 60.0911412,52.7055721 59.6962025,53.080298 C59.3012638,53.4550239 58.9177234,53.9128008 58.5455696,54.4536424 C57.9531616,55.3189889 57.3493702,56.3156676 56.7341772,57.4437086 L56.4265823,58 L54.8202532,58 L55.1734177,56.910596 C55.8341805,54.901756 56.164557,53.7099908 56.164557,53.3352649 C56.164557,52.960539 56.1037981,52.7731788 55.9822785,52.7731788 C55.7620242,52.7731788 55.5000015,53.0397324 55.1962025,53.5728477 C55.1278478,53.6964686 55.0708863,53.7949776 55.0253165,53.8683775 C54.9797466,53.9417774 54.9284813,54.0306286 54.871519,54.1349338 C54.8145567,54.2392389 54.7784811,54.30298 54.7632911,54.3261589 L54,53.8741722 C54.592408,52.8929311 55.1354406,52.1686006 55.6291139,51.7011589 C56.1227873,51.2337173 56.6278455,51 57.1443038,51 C57.379748,51 57.5829105,51.1004405 57.7537975,51.3013245 C57.9246844,51.5022085 58.0101266,51.7397889 58.0101266,52.0140728 C58.0101266,52.2883568 57.9949369,52.5317318 57.964557,52.7442053 C57.9341771,52.9566788 57.9000002,53.1517651 57.8620253,53.3294702 C57.8240504,53.5071753 57.7708864,53.7196456 57.7025316,53.9668874 C57.6341769,54.2141293 57.5791141,54.403421 57.5373418,54.5347682 C57.4955694,54.6661154 57.4405067,54.8438179 57.3721519,55.0678808 C57.3037971,55.2919437 57.2620254,55.423289 57.2468354,55.4619205 C57.383545,55.1837734 57.6151882,54.7742853 57.9417722,54.2334437 C58.2683561,53.6926022 58.4810122,53.3526497 58.5797468,53.2135762 C58.6784815,53.0745026 58.815189,52.889074 58.9898734,52.6572848 C59.1645578,52.4254955 59.3183538,52.2458616 59.4512658,52.1183775 C59.5841779,51.9908934 59.74367,51.8440958 59.9297468,51.6779801 C60.1158237,51.5118645 60.2924042,51.3863139 60.4594937,51.3013245 C60.8848123,51.1004405 61.2949347,51 61.6898734,51 C62.0848121,51 62.4018975,51.1178244 62.6411392,51.3534768 C62.8803809,51.5891292 63,51.863409 63,52.1763245 C63,52.48924 62.9031655,52.7635198 62.7094937,52.9991722 C62.5158218,53.2348246 62.2917734,53.352649 62.0373418,53.352649 C61.7829101,53.352649 61.583545,53.3082234 61.4392405,53.2193709 C61.294936,53.1305183 61.1962028,53.0358725 61.143038,52.9354305 C60.9835435,52.6572834 60.8430386,52.5182119 60.721519,52.5182119 Z M65.4502262,54.6467742 C67.0264031,52.2155792 68.4404161,51 69.6923077,51 C70.1146326,51 70.4313715,51.1279557 70.6425339,51.383871 C70.8536964,51.6397862 70.959276,51.9634389 70.959276,52.3548387 C70.959276,52.7462385 70.7839384,53.4236511 70.4332579,54.3870968 C70.0825774,55.3505425 69.9072398,55.9470419 69.9072398,56.1766129 C69.9072398,56.4061839 69.9638003,56.5209677 70.0769231,56.5209677 C70.2277534,56.5209677 70.4502248,56.3647865 70.7443439,56.0524194 C71.038463,55.7400522 71.2986414,55.4107544 71.5248869,55.0645161 L72,55.516129 C71.547509,56.3365632 71.0516618,56.9556431 70.5124434,57.3733871 C69.9732251,57.7911311 69.5358237,58 69.2002262,58 C68.8646288,58 68.602565,57.8889796 68.4140271,57.6669355 C68.2254893,57.4448914 68.1312217,57.1419374 68.1312217,56.7580645 C68.1312217,56.3741916 68.2839351,55.747585 68.5893665,54.8782258 C68.8947979,54.0088666 69.0475113,53.3916685 69.0475113,53.0266129 C69.0475113,52.6615573 68.9230782,52.4790323 68.6742081,52.4790323 C68.3876305,52.4790323 68.0482674,52.6615573 67.6561086,53.0266129 C67.2639498,53.3916685 66.8831089,53.8376318 66.5135747,54.3645161 C65.9253364,55.2075311 65.3257949,56.1784891 64.7149321,57.2774194 L64.4095023,57.8193548 L62.8144796,57.8193548 L63.1651584,56.7580645 C63.8212702,54.8010655 64.1493213,53.6400556 64.1493213,53.275 C64.1493213,52.9099444 64.08899,52.7274194 63.9683258,52.7274194 C63.7496218,52.7274194 63.4894434,52.9870942 63.1877828,53.5064516 C63.1199092,53.6268823 63.0633486,53.7228491 63.0180995,53.7943548 C62.9728505,53.8658606 62.921946,53.9524188 62.8653846,54.0540323 C62.8088232,54.1556457 62.7730016,54.2177418 62.7579186,54.2403226 L62,53.8 C62.5882382,52.8440812 63.1274485,52.1384431 63.6176471,51.6830645 C64.1078456,51.2276859 64.6093489,51 65.1221719,51 C65.3559589,51 65.5576915,51.0978485 65.7273756,51.2935484 C65.8970597,51.4892483 65.9819005,51.7263427 65.9819005,52.0048387 C65.9819005,52.2833347 65.9592762,52.5561815 65.9140271,52.8233871 C65.8687781,53.0905927 65.8216443,53.3126335 65.7726244,53.4895161 C65.7236046,53.6663987 65.6595027,53.8940846 65.5803167,54.1725806 C65.5011308,54.4510767 65.4577678,54.6091396 65.4502262,54.6467742 Z M77.1450382,43 L79,43 C78.6717541,43.5497799 78.1679423,44.77005 77.4885496,46.660847 C76.8091569,48.5516439 76.1889341,50.4535566 75.6278626,52.3666419 C75.0667911,54.2797272 74.7862595,55.4498493 74.7862595,55.8770431 C74.7862595,56.3042369 74.8396941,56.5178306 74.9465649,56.5178306 C75.2671772,56.5178306 75.7671722,56.0460671 76.4465649,55.102526 L76.9274809,55.5482912 C76.5916014,56.11293 76.2290096,56.5884082 75.8396947,56.97474 C75.1526683,57.6582501 74.595422,58 74.1679389,58 C73.3893091,58 73,57.5430952 73,56.6292719 C73,55.2696812 73.4637358,53.1263148 74.3912214,50.1991085 C75.3187069,47.2719022 76.2366367,44.8722233 77.1450382,43 Z M83.2403004,51.2483871 L84.9974969,51.2483871 L84.1076345,54.6241935 C83.9649555,55.0983895 83.893617,55.5292991 83.893617,55.9169355 C83.893617,56.3045718 83.9612008,56.4983871 84.0963705,56.4983871 C84.2315401,56.4983871 84.4173956,56.3798399 84.6539424,56.1427419 C84.8904893,55.905644 85.0913634,55.6666679 85.2565707,55.4258065 L85.5156446,55.0645161 L86,55.516129 C85.752189,55.9978519 85.4367979,56.43817 85.0538173,56.8370968 C84.3103843,57.6123695 83.6645835,58 83.1163955,58 C82.470585,58 82.1476846,57.4994674 82.1476846,56.4983871 C82.1476846,56.3327949 82.1551939,56.2086026 82.1702128,56.1258065 C82.0575714,56.5096793 81.843556,56.8483856 81.5281602,57.1419355 C80.9274063,57.7139814 80.2496909,58 79.4949937,58 C78.7402966,58 78.135797,57.7422069 77.6814768,57.2266129 C77.2271567,56.7110189 77,56.0655953 77,55.2903226 C77,54.0860155 77.3904842,53.0698966 78.1714643,52.2419355 C78.9524445,51.4139744 79.8685805,51 80.9198999,51 C81.4455596,51 81.8810996,51.144891 82.2265332,51.4346774 C82.5719667,51.7244638 82.797246,52.1026858 82.902378,52.5693548 L83.2403004,51.2483871 Z M81.0285714,52 C80.6603156,52 80.3158746,52.1820552 79.9952381,52.5461712 C79.6746016,52.9102871 79.4285723,53.3494719 79.2571429,53.8637387 C79.0857134,54.3780056 79,54.8791267 79,55.3671171 C79,55.8551075 79.0904753,56.2492477 79.2714286,56.5495495 C79.4523819,56.8498514 79.7317441,57 80.1095238,57 C80.4873035,57 80.8285699,56.7972993 81.1333333,56.3918919 C81.711114,55.6111072 82,54.6839393 82,53.6103604 C82,52.5367814 81.6761937,52 81.0285714,52 Z M89.4502262,54.6467742 C91.0264031,52.2155792 92.4404161,51 93.6923077,51 C94.1146326,51 94.4313715,51.1279557 94.6425339,51.383871 C94.8536964,51.6397862 94.959276,51.9634389 94.959276,52.3548387 C94.959276,52.7462385 94.7839384,53.4236511 94.4332579,54.3870968 C94.0825774,55.3505425 93.9072398,55.9470419 93.9072398,56.1766129 C93.9072398,56.4061839 93.9638003,56.5209677 94.0769231,56.5209677 C94.2277534,56.5209677 94.4502248,56.3647865 94.7443439,56.0524194 C95.038463,55.7400522 95.2986414,55.4107544 95.5248869,55.0645161 L96,55.516129 C95.547509,56.3365632 95.0516618,56.9556431 94.5124434,57.3733871 C93.9732251,57.7911311 93.5358237,58 93.2002262,58 C92.8646288,58 92.602565,57.8889796 92.4140271,57.6669355 C92.2254893,57.4448914 92.1312217,57.1419374 92.1312217,56.7580645 C92.1312217,56.3741916 92.2839351,55.747585 92.5893665,54.8782258 C92.8947979,54.0088666 93.0475113,53.3916685 93.0475113,53.0266129 C93.0475113,52.6615573 92.9230782,52.4790323 92.6742081,52.4790323 C92.3876305,52.4790323 92.0482674,52.6615573 91.6561086,53.0266129 C91.2639498,53.3916685 90.8831089,53.8376318 90.5135747,54.3645161 C89.9253364,55.2075311 89.3257949,56.1784891 88.7149321,57.2774194 L88.4095023,57.8193548 L86.8144796,57.8193548 L87.1651584,56.7580645 C87.8212702,54.8010655 88.1493213,53.6400556 88.1493213,53.275 C88.1493213,52.9099444 88.08899,52.7274194 87.9683258,52.7274194 C87.7496218,52.7274194 87.4894434,52.9870942 87.1877828,53.5064516 C87.1199092,53.6268823 87.0633486,53.7228491 87.0180995,53.7943548 C86.9728505,53.8658606 86.921946,53.9524188 86.8653846,54.0540323 C86.8088232,54.1556457 86.7730016,54.2177418 86.7579186,54.2403226 L86,53.8 C86.5882382,52.8440812 87.1274485,52.1384431 87.6176471,51.6830645 C88.1078456,51.2276859 88.6093489,51 89.1221719,51 C89.3559589,51 89.5576915,51.0978485 89.7273756,51.2935484 C89.8970597,51.4892483 89.9819005,51.7263427 89.9819005,52.0048387 C89.9819005,52.2833347 89.9592762,52.5561815 89.9140271,52.8233871 C89.8687781,53.0905927 89.8216443,53.3126335 89.7726244,53.4895161 C89.7236046,53.6663987 89.6595027,53.8940846 89.5803167,54.1725806 C89.5011308,54.4510767 89.4577678,54.6091396 89.4502262,54.6467742 Z M101.308458,56.4498141 C100.542285,57.4832765 99.6265393,58 98.561194,58 C97.8460992,58 97.2404668,57.7342034 96.7442786,57.2026022 C96.2480904,56.6710011 96,55.9925692 96,55.1672862 C96,54.059474 96.4086195,53.1022345 97.2258706,52.295539 C98.0431218,51.4888436 98.9588672,51.0855019 99.9731343,51.0855019 C100.49851,51.0855019 100.949086,51.1914488 101.324876,51.4033457 C101.700665,51.6152427 101.943283,51.9033439 102.052736,52.267658 C102.388393,50.8624465 102.871804,49.2323513 103.502985,47.3773234 C104.134166,45.5222956 104.716084,44.0632023 105.248756,43 L107,43 C106.32139,44.3680366 105.485909,46.6858573 104.493532,49.9535316 C103.501156,53.2212059 103.004975,55.2639364 103.004975,56.0817844 C103.004975,56.3717487 103.063349,56.5167286 103.1801,56.5167286 C103.471975,56.5167286 103.938969,56.0446144 104.581095,55.1003717 L105.051741,55.5464684 C104.592038,56.3791863 104.099505,56.9962805 103.574129,57.3977695 C103.048754,57.7992585 102.627365,58 102.30995,58 C101.992536,58 101.744445,57.8829008 101.565672,57.6486989 C101.386898,57.414497 101.297512,57.0743517 101.297512,56.6282528 C101.297512,56.6133828 101.299337,56.5855021 101.302985,56.5446097 C101.306634,56.5037173 101.308458,56.4721191 101.308458,56.4498141 Z M98,55.1494253 C98,56.3831479 98.4723762,57 99.4171429,57 C100.300957,57 101.028569,56.4061362 101.6,55.2183908 C101.866668,54.659001 102,54.2068983 102,53.862069 C102,52.6206834 101.531433,52 100.594286,52 C99.9695207,52 99.3809551,52.2892691 98.8285714,52.8678161 C98.2761877,53.446363 98,54.2068918 98,55.1494253 Z M106.402318,57.7403226 C105.900108,57.5672034 105.54084,57.362098 105.324503,57.125 C105.108167,56.887902 105,56.6263455 105,56.3403226 C105,56.0542996 105.081125,55.8172052 105.243377,55.6290323 C105.40563,55.4408593 105.620032,55.3467742 105.886589,55.3467742 C106.153147,55.3467742 106.388796,55.423924 106.593543,55.5782258 C106.79829,55.7325277 106.900662,55.950805 106.900662,56.2330645 C106.900662,56.515324 106.72296,56.7505367 106.36755,56.9387097 C106.661149,57.187098 107.109269,57.3112903 107.711921,57.3112903 C109.017667,57.3112903 109.67053,56.9500036 109.67053,56.2274194 C109.67053,55.7758042 109.257179,55.4145175 108.430464,55.1435484 C108.090506,55.0306446 107.748622,54.9102157 107.404801,54.7822581 C107.060981,54.6543004 106.761591,54.4661303 106.506623,54.2177419 C106.251654,53.9693536 106.112583,53.6682813 106.089404,53.3145161 C106.089404,52.8026856 106.263243,52.3698942 106.610927,52.016129 C107.267663,51.3387063 108.24889,51 109.554636,51 C110.195919,51 110.763794,51.1185472 111.258278,51.3556452 C111.752762,51.5927431 112,51.8994605 112,52.2758065 C112,52.6521524 111.901491,52.9231175 111.70447,53.0887097 C111.507449,53.2543019 111.277595,53.3370968 111.014901,53.3370968 C110.752206,53.3370968 110.530078,53.2674738 110.34851,53.1282258 C110.166942,52.9889778 110.076159,52.7951625 110.076159,52.5467742 C110.076159,52.2983859 110.22682,52.0838719 110.528146,51.9032258 C110.342714,51.7752682 110.022077,51.7112903 109.566225,51.7112903 C109.110373,51.7112903 108.700885,51.7771499 108.337748,51.908871 C107.974612,52.0405921 107.793046,52.2193537 107.793046,52.4451613 C107.793046,52.6709689 107.926323,52.859139 108.192881,53.0096774 C108.459438,53.1602158 108.782007,53.2994617 109.160596,53.4274194 C109.539185,53.555377 109.917769,53.7021497 110.296358,53.8677419 C110.674947,54.0333342 110.997515,54.2704286 111.264073,54.5790323 C111.53063,54.887636 111.663907,55.2677397 111.663907,55.7193548 C111.663907,56.17097 111.474616,56.581181 111.096026,56.95 C110.37748,57.6500035 109.396253,58 108.152318,58 C107.495582,58 106.912254,57.9134417 106.402318,57.7403226 Z" id="Southernlands"></path>
                </g>
            </g>
        </g>
    </g>
</svg>